<svg xmlns="http://www.w3.org/2000/svg" width="19.799" height="19.799" viewBox="0 0 19.799 19.799">
  <path id="Path_240_2_" d="M11.528.348,7,4.848,2.472.348C1.892-.229,1.312.232.731.809S-.314,1.963.267,2.54L4.794,6.926.267,11.542c-.58.577-.116,1.154.464,1.731s1.161,1.039,1.741.462L7,9.119l4.528,4.5c.58.577,1.161.115,1.741-.462s1.045-1.154.464-1.731l-4.528-4.5,4.528-4.5c.58-.577.116-1.154-.464-1.731C12.8.117,12.224-.345,11.528.348Z" transform="translate(9.899 0) rotate(45)" fill="#1a6ca0"/>
</svg>
