<svg xmlns="http://www.w3.org/2000/svg" xmlns:xlink="http://www.w3.org/1999/xlink" preserveAspectRatio="none">
  <defs>
    <filter id="Sustracción_2" x="0" y="0" filterUnits="userSpaceOnUse">
      <feOffset dy="5"/>
      <feGaussianBlur stdDeviation="5" result="blur"/>
      <feFlood flood-opacity="0.2"/>
      <feComposite operator="in" in2="blur"/>
      <feComposite in="SourceGraphic"/>
    </filter>
  </defs>
  <g transform="matrix(1, 0, 0, 1, 0, 0)" filter="url(#Sustracción_2)">
    <path id="Sustracción_2-2" d="M-2281.4,1441h-3.2a.4.4,0,0,1-.4-.4v-2.62a9.108,9.108,0,0,1-2.935-1.216l-1.854,1.854a.4.4,0,0,1-.283.117.4.4,0,0,1-.283-.117l-2.263-2.263a.4.4,0,0,1-.117-.283.4.4,0,0,1,.117-.283l1.854-1.854a9.121,9.121,0,0,1-1.217-2.934h-2.621a.4.4,0,0,1-.4-.4v-3.2a.4.4,0,0,1,.4-.4h2.621a9.116,9.116,0,0,1,1.216-2.935l-1.854-1.854a.4.4,0,0,1-.117-.283.4.4,0,0,1,.117-.283l2.263-2.263a.4.4,0,0,1,.283-.117.4.4,0,0,1,.283.117l1.854,1.854a9.118,9.118,0,0,1,2.934-1.216V1417.4a.4.4,0,0,1,.4-.4h3.2a.4.4,0,0,1,.4.4v2.621a9.108,9.108,0,0,1,2.935,1.216l1.854-1.854a.4.4,0,0,1,.283-.117.4.4,0,0,1,.283.117l2.263,2.263a.4.4,0,0,1,0,.566l-1.854,1.854a9.116,9.116,0,0,1,1.216,2.934h2.621a.4.4,0,0,1,.4.4v3.2a.4.4,0,0,1-.4.4h-2.621a9.117,9.117,0,0,1-1.217,2.935l1.854,1.853a.4.4,0,0,1,0,.566l-2.263,2.263a.4.4,0,0,1-.283.117.4.4,0,0,1-.283-.117l-1.854-1.854a9.119,9.119,0,0,1-2.934,1.216v2.62A.4.4,0,0,1-2281.4,1441Zm-1.6-16a4,4,0,0,0-4,4,4,4,0,0,0,4,4,4,4,0,0,0,4-4A4,4,0,0,0-2283,1425Z" transform="translate(2310 -1407)" fill="#fff"/>
  </g>
</svg>