<svg id="Capa_1" data-name="Capa 1" xmlns="http://www.w3.org/2000/svg" viewBox="0 0 3000 150"><defs><style>.cls-1{fill:#6dcef5;opacity:0.6;}.cls-1,.cls-2{isolation:isolate;}.cls-2,.cls-4{fill:#1a6ca0;}.cls-2{opacity:0.3;}.cls-3,.cls-5{fill:none;}.cls-5{stroke:#1a6ca0;}</style></defs><title>cabeceras_generador</title><rect class="cls-1" width="3000" height="150"/><g id="cabecera_generador_250" data-name="cabecera generador 250"><g id="orange"><path class="cls-2" d="M2292.51,150H539.75c.6-1.79,2.65-5.69,9.38-8.75a36.53,36.53,0,0,1,6.11-2.13l.63-.17h0a64.13,64.13,0,0,1,8.82-1.47c16.15-1.61,24,2.16,39.84,3.86l2.79.26.16,0h.18a155.47,155.47,0,0,0,19,.34c1.52-.05,3.09-.13,4.72-.23l.88-.06h.24l2.77-.19c10.07-1,20.38-2.35,30.88-3.84l1.53-.22,2.49-.36.13,0q10.63-1.54,21.49-3.33h0l1.48-.24h.05c61.25-10,126.91-24.27,186.76-30.14l4.39-.42.35,0h0c1.31-.12,2.62-.24,3.92-.34q11.87-1,23.37-1.51,3.4-.15,6.76-.24c2.8-.08,5.56-.14,8.26-.19l2.87,0h.4c14.1-.2,26.85,0,38.47.47l1.78.08h0l.31,0q3.27.15,6.42.33c52.73,3,80.86,12.63,107.19,20.62q1.74.54,3.48,1l1.27.39h0l.31.09c22.12,6.56,44,11.62,79.33,10.29,17.27-.65,30.1-2.81,40-5.88l.27-.08h0c1-.33,2.06-.68,3-1l.38-.13.72-.27.22-.08a62,62,0,0,0,21.48-13.18h0c6.54-6.12,10.91-12.5,17.12-17.49a37.42,37.42,0,0,1,12.6-6.69l0,0,.05,0h.06c.62-.19,1.27-.37,1.93-.54a50.64,50.64,0,0,1,5.23-1.08h0a92,92,0,0,1,19.38-.59c4.57.28,8.9.72,13,1.31h0c3.55.49,7,1.09,10.28,1.78l.15,0h0l1.92.41c14.51,3.21,27.24,8.09,41.24,13.47h0c3.56,1.36,7.18,2.76,11,4.17l4.72,1.74h0l.06,0c3.61,1.32,7.36,2.64,11.28,3.94l3,1,2.37.76h0c19.42,6.15,43.14,11.85,75.48,15.42l2.07.23h.06l5.23.53c10.15,1,21.12,1.75,33,2.27,81,3.53,146.86,4.43,215.32.4h0q7.77-.45,15.58-1h.16l3.22-.23q15-1.08,30.32-2.48l.32,0,6.94-.65h0l2.41-.24c25.58-2.51,52.14-5.73,80.49-9.77q7.05-1,13.62-2.06l1.23-.21h0l.16,0,3.2-.53c9.34-1.57,18-3.21,26-4.9l.61-.13h0l.64-.13.15,0h0c4.77-1,9.3-2.07,13.63-3.11l.61-.15h0l1-.24a419.84,419.84,0,0,0,42-12.58l1.43-.5c3.12-1.13,6.09-2.25,8.94-3.35l.59-.23c10.72-4.14,19.67-8,28.11-11.21.85-.32,1.69-.64,2.53-.94l.09,0,1.88-.68.11,0,1-.35h0l.29-.1a124.83,124.83,0,0,1,17-4.75,102.13,102.13,0,0,1,12.65-1.72l1.17-.08h0a126.77,126.77,0,0,1,15,0,54.16,54.16,0,0,1,14.66,2.52,23.61,23.61,0,0,1,5.47,2.64c.29.19.57.39.83.59l.13.1c15.45,11.85-5,38.1,4.91,49.75a12.49,12.49,0,0,0,1.26,1.26l.1.09s0,0,0,0c2.07,1.72,5,3,9.22,3.74,1.15.2,2.28.35,3.4.46h0a47.58,47.58,0,0,0,21.68-3.41l.1,0,.1,0c.86-.33,1.7-.68,2.56-1a118.42,118.42,0,0,0,11.58-5.83l0,0a3.84,3.84,0,0,0,.39-.22h0c1.34-.76,2.68-1.53,4-2.33,10.14-5.91,20.63-12.58,32.58-17.13,1.17-.44,2.35-.87,3.55-1.27l1.83-.59c2.49-.78,5.06-1.45,7.69-2l.13,0,1.45-.28a75.86,75.86,0,0,1,21-.94,99.45,99.45,0,0,1,29.6,7.73l.68.3.06,0q2.3,1,4.53,2.07a150.38,150.38,0,0,1,23.71,14.4l.24.18,1.27.94.09.07A186.25,186.25,0,0,1,2292.51,150Z"/></g><g id="line_orange" data-name="line orange"><g id="Trazado_28697" data-name="Trazado 28697"><path class="cls-3" d="M2294.72,150H543c1-2.76,4-7.84,12.9-11.05h0a48.72,48.72,0,0,1,11.78-2.52c2-.2,3.89-.32,5.68-.38.58,0,1.16,0,1.74,0l1.58,0c1.16,0,2.28.08,3.37.16q.57,0,1.11.09l.83.07,1.14.12c.85.1,1.69.2,2.51.32l1.12.16.38.06,1.71.28,1.24.21,1.24.22,1,.18,4.05.73,1.42.25,1.18.2,2.13.34c2.15.34,4.45.65,6.94.9q1.43.15,2.94.27h0l.29,0h.07A155.15,155.15,0,0,0,627,141h0c1.53,0,3.11-.09,4.76-.17l.89-.05h.24c1.71-.09,3.5-.2,5.35-.34,9.65-1,19.52-2.24,29.57-3.65l1.36-.2h0l2.47-.35h.13q9.57-1.4,19.33-3h0l1.31-.21.15,0c2.83-.46,5.66-.92,8.51-1.4h0l6.42-1.08,12.51-2.16,6.92-1.22,7-1.24,14-2.52,18.7-3.39q17-3.09,34-6l1.64-.28q9.11-1.56,18.18-3,7.11-1.16,14.16-2.22l9.38-1.38c4.49-.64,9-1.26,13.4-1.83q8.9-1.17,17.65-2.12c.85-.1,1.71-.19,2.56-.27s1.49-.17,2.23-.24l2.23-.22.32,0s0,0,0,0l1.35-.13,2.35-.22,2-.19c1.44-.14,2.87-.26,4.3-.38l4.29-.34q9.42-.73,18.61-1.11h0c2.16-.1,4.31-.17,6.45-.23l.78,0q3.87-.1,7.6-.17l2.81,0s0,0,0,0h.39c13.73-.19,26.18,0,37.55.44l1.85.07.32,0h0c2.22.1,4.38.21,6.51.33h0c56.74,3.2,85.13,13.94,113.18,22.24l3.44,1,1.42.41.29.09h0c2.18.63,4.38,1.22,6.59,1.8h.05c2.08.55,4.17,1.07,6.29,1.56l.18,0,2.36.54.3.06c1.17.26,2.36.51,3.56.76l.51.1,2.08.4.68.13,2,.37.84.14c.61.1,1.22.21,1.84.3.81.14,1.64.27,2.48.39l.88.13q3.55.51,7.32.92c2.9.32,5.89.58,9,.78l.8.05a259.08,259.08,0,0,0,26.12.25l.72,0c1.18,0,2.33-.1,3.47-.16l1.9-.11c1.82-.11,3.58-.24,5.29-.39.79-.06,1.57-.14,2.34-.21l3.44-.37a140.47,140.47,0,0,0,15.7-2.67l1.92-.47,1.63-.42h0l.29-.08h0l1.11-.32c.81-.23,1.59-.47,2.36-.71l.41-.13h0l.86-.27.22-.08c1.94-.65,3.75-1.33,5.46-2l1.74-.75.09,0c.62-.28,1.22-.57,1.81-.85l.09,0q1.56-.76,3-1.56c1-.53,1.87-1.07,2.75-1.62h0l1.1-.7.9-.6c1.38-.94,2.66-1.91,3.87-2.88.9-.72,1.76-1.46,2.59-2.22l.82-.75h0c1-.93,2-1.87,2.87-2.82l.91-.94,1.17-1.26c1.54-1.67,3-3.33,4.47-4.94,1.13-1.23,2.24-2.44,3.4-3.61.45-.46.91-.91,1.38-1.37s1-.89,1.44-1.32l.88-.76c.17-.16.35-.3.53-.44s.67-.55,1-.81a.18.18,0,0,1,.07,0c.18-.15.37-.29.56-.42s.38-.28.57-.41l1.1-.75.08,0c.4-.26.81-.51,1.22-.76a35.81,35.81,0,0,1,5.3-2.61l0,0,.05,0h0v0h0l.06,0,1.55-.57h0l.68-.22.89-.28q1.33-.42,2.79-.75a76.93,76.93,0,0,1,20.76-1.54c.91,0,1.84.08,2.79.14h0l.21,0c1.34.08,2.66.18,4,.29s2.57.23,3.83.37h0c3.32.36,6.51.8,9.61,1.33l.14,0c.59.09,1.18.2,1.76.3,19.67,3.59,35.61,10.32,54.63,17.53h0c3.72,1.4,7.53,2.83,11.54,4.25q2.49.89,5.07,1.77l.07,0c1.45.5,2.92,1,4.42,1.48l3.15,1,2.38.75h0c19.12,6,42.42,11.43,73.86,14.9l1.9.2h0l4.72.48h0q11.12,1.08,23.59,1.82l3.61.2c2.13.11,4.3.22,6.49.31l8.2.35,7.59.31,7.5.29,13.15.48c62.71,2.18,117.15,2.37,173-.69h0q7.82-.42,15.67-.94h.12l3.22-.22c8.76-.59,17.57-1.26,26.49-2h0l.34,0,6.21-.55h0l3.16-.29c28.53-2.62,58.17-6.13,90.08-10.68q4.32-.61,8.47-1.25c.45-.08.91-.15,1.36-.21h0l.14,0,3.29-.52c10.23-1.64,19.62-3.37,28.28-5.17l.54-.11.7-.14.16,0h0c4.52-.94,8.82-1.9,13-2.88l.71-.16,0,0c.33-.07.65-.14,1-.23a425.32,425.32,0,0,0,42.2-12.29l1.43-.5c15.23-5.38,27-10.53,37.7-14.71,1.5-.6,3-1.16,4.45-1.72l.12,0,1-.37h0l.29-.1a138.9,138.9,0,0,1,17.38-5.25A102.37,102.37,0,0,1,2039.47,71l1.17-.1h0a123.77,123.77,0,0,1,17.35-.18,55.33,55.33,0,0,1,14,2.32h0a25.07,25.07,0,0,1,5.64,2.55c.3.19.59.39.87.58l.12.1h0c5.32,3.84,6.64,9.28,6.37,15.29,0,.49-.06,1-.1,1.47-.08,1-.2,2-.35,3-.8,5.44-2.37,11.1-3.08,16.28-.87,6.28-.5,11.86,4,15.47a12.75,12.75,0,0,0,1.79,1.22l.17.09a22.51,22.51,0,0,0,7.13,2.33,40.77,40.77,0,0,0,9.28.57h0a48,48,0,0,0,12.83-2.47l.1,0,.1,0a94.84,94.84,0,0,0,16.37-7.51h0l.42-.23q2.08-1.15,4.18-2.39c10.49-6.09,21.35-13.06,33.77-17.7l1.76-.64c2.4-.84,4.86-1.59,7.39-2.23l.13,0c.45-.12.9-.23,1.36-.33a75.42,75.42,0,0,1,24.45-1.66,95,95,0,0,1,28.38,7.43l.7.3a.09.09,0,0,1,.06,0q2.3,1,4.53,2.08a146.49,146.49,0,0,1,25.26,15.8h0c.49.37,1,.75,1.44,1.12l.08.06A190.13,190.13,0,0,1,2294.72,150Z"/><path id="Trazado_28649" data-name="Trazado 28649" class="cls-4" d="M2290.51,142.73a199.26,199.26,0,0,0-19.1-18c-.47-.4-.95-.79-1.43-1.17,0,0-.05,0-.07-.06l-1.37-1.1-.17-.14a155.12,155.12,0,0,0-25.56-16.43l-.82-.4q-2.26-1.11-4.53-2.1l-.07,0-.69-.29a98.34,98.34,0,0,0-29.59-7.88c-2.5-.2-4.9-.3-7.3-.3a75.33,75.33,0,0,0-16.4,1.8c-.86.18-1.72.37-2.57.58q-.66.15-1.32.33l-.13,0a74.81,74.81,0,0,0-7.4,2.36c-1.1.4-2.2.84-3.28,1.3-9.3,3.8-17.7,8.8-25.8,13.6q-5.2,3.27-10.62,6.17c-1.58.85-3.17,1.67-4.77,2.48h0l-.51.25h0c-1.44.72-2.9,1.41-4.36,2.09a59.16,59.16,0,0,1-10.1,3.5,43.76,43.76,0,0,1-10.5,1.3,42.18,42.18,0,0,1-7.1-.6,27.62,27.62,0,0,1-3.62-.84h0l-.23-.09a16.59,16.59,0,0,1-2.82-1.17,10.46,10.46,0,0,1-4-3.5c-3.4-5-1.8-12.5-.1-20.5a82.2,82.2,0,0,0,2-13.5c.1-5-1-9-3.4-12.1a15.76,15.76,0,0,0-2.68-2.74l-.13-.1c-.26-.21-.52-.41-.8-.6a22.69,22.69,0,0,0-5.32-2.73h0a53.61,53.61,0,0,0-15.66-2.83c-2.5-.1-5.1-.2-7.5-.2q-4.47,0-8.91.32h-.06c-.39,0-.78.06-1.16.09a106.08,106.08,0,0,0-12.79,1.92c-2.38.51-4.74,1.09-7.08,1.76-4.16,1.19-8.25,2.58-12.45,4.15l-1,.37-.11,0q-2.21.83-4.45,1.71c-3.24,1.27-6.58,2.62-10.09,4a475.91,475.91,0,0,1-47.9,17.2c-7.56,2.21-15.39,4.28-23.55,6.21l-1,.22h-.06l-1,.25q-5.28,1.23-10.75,2.38l-.17,0-.87.18-.33.07c-10.78,2.25-22.11,4.3-34.11,6.15l-3.42.53-.16,0h0l-1.49.23-3.49.51c-35.67,5.14-68.86,9-100.88,11.67l-4.17.35c-1.75.15-3.51.28-5.25.41a1.1,1.1,0,0,1-.25,0h0c-3.33.27-6.64.52-10,.75s-6.64.48-10,.7l-3.22.21h-.1c-5.19.34-10.36.65-15.55.92-9.08.48-18.2.87-27.48,1.16-18.4.6-36.9.9-56.6.9-34.8,0-73.31-.9-121.21-3-11.1-.47-21.68-1.17-31.81-2.12q-2.22-.19-4.41-.42h0l-1.82-.19a416.36,416.36,0,0,1-53.83-9c-7.07-1.68-13.6-3.47-19.73-5.33h0c-.81-.25-1.62-.49-2.41-.75-1.11-.34-2.21-.68-3.29-1l-.21-.07-.08,0h0q-2.82-.9-5.53-1.83c-4.27-1.44-8.32-2.9-12.23-4.34h0c-4.44-1.64-8.67-3.25-12.76-4.81-16.48-6.33-31.22-12-49.14-15-.56-.1-1.12-.2-1.69-.28h0a.58.58,0,0,0-.14,0c-3-.49-6.16-.9-9.41-1.22q-3.18-.33-6.51-.54c-2.6-.1-5.2-.2-7.6-.2a73.53,73.53,0,0,0-15.8,1.5c-.9.2-1.8.43-2.69.69-1.32.38-2.62.83-3.9,1.34-.5.2-1,.41-1.49.63l0,0c-1,.46-2.08,1-3.08,1.52a41.74,41.74,0,0,0-7.66,5.6c-2.6,2.36-4.94,4.94-7.34,7.6a118.27,118.27,0,0,1-9.2,9.4c-.19.17-.39.34-.58.49h0a60,60,0,0,1-12.41,8.2,86.32,86.32,0,0,1-14.31,5.39l-.29.08c-1.37.37-2.74.71-4.12,1h0l-.36.08c-.37.09-.74.16-1.11.24a174.16,174.16,0,0,1-30.7,3.5c-3.8.1-7.5.2-11,.2a213.55,213.55,0,0,1-43.1-4.1c-5-1-9.81-2.17-14.52-3.43l-.34-.09h0l-1.59-.43c-1.18-.31-2.36-.64-3.52-1-5.08-1.44-10.13-3-15.31-4.56-15.5-4.8-31.6-9.7-53.2-13.5a409.19,409.19,0,0,0-47.53-5.43q-3.24-.21-6.55-.37h-.35l-1.86-.09q-13.74-.6-28.72-.6-3.85,0-7.82,0H936l-2.64,0h0q-5.7.07-11.58.23l-2.77.08h0c-11.37.35-23.37,1.21-36.46,2.49l-.35,0-3.12.33-.32,0-4.64.51c-10.34,1.16-21.28,2.59-33.22,4.33-28,4.1-57,9.4-85.1,14.5-19.9,3.6-40.5,7.4-60.2,10.6l-4.1.66-.45.07h0l-1,.16s0,0,0,0q-8.17,1.32-15.77,2.43l-.15,0h0l-2.52.37-1.09.16h0c-11.69,1.68-22.35,3-32.21,4-1.66.12-3.3.23-4.91.31h-.24l-.9.05c-1.65.08-3.27.14-4.86.17s-3,.06-4.49.06c-2.77,0-5.54-.07-8.31-.22h-.13l-.29,0h0c-1.06-.06-2.13-.13-3.2-.23h0a143.67,143.67,0,0,1-17.14-2.42,94.85,94.85,0,0,0-18.4-2.1,68.36,68.36,0,0,0-7.7.4,44.76,44.76,0,0,0-14.4,3.5,25,25,0,0,0-7.9,5.5,13.7,13.7,0,0,0-3.44,5.57h.85c1-2.71,3.94-7.67,12.45-10.88a47.91,47.91,0,0,1,12.24-2.69q2.92-.31,5.86-.38c.58,0,1.16,0,1.74,0l1.58,0c1.16,0,2.28.08,3.37.16q.57,0,1.11.09l.83.07,1.14.12c.85.1,1.69.2,2.51.32l1.12.16.38.06,1.71.28,1.24.21,1.24.22,1,.18,4.05.73,1.42.25,1.18.2,2.13.34c2.18.33,4.49.63,7,.88,1,.1,1.94.19,3,.27l.3,0h.07c3.36.25,7.08.41,11.27.41,1.38,0,2.83,0,4.34-.06h0c1.52,0,3.11-.09,4.76-.17l.89,0h.24c1.69-.09,3.45-.19,5.26-.32q14.54-1.52,29.68-3.67h0l1.35-.19,2.47-.35h0l.13,0q9.55-1.38,19.29-3h0l1.3-.21h0l.15,0,8.52-1.39h0l6.42-1.08,12.51-2.16,6.92-1.22,7-1.24,14-2.52,18.7-3.39q17-3.09,34-6l1.64-.28q9.11-1.56,18.18-3,7.11-1.16,14.16-2.22l9.38-1.38c4.49-.64,9-1.26,13.4-1.83q8.9-1.17,17.65-2.12l2.54-.28,2.25-.23,2.21-.23.34,0s0,0,0,0l1.35-.13,2.34-.23,2-.18c1.44-.14,2.87-.26,4.3-.38s2.86-.24,4.29-.34q9.42-.73,18.61-1.11h0c2.16-.1,4.31-.17,6.45-.23l.78,0c2.56-.06,5.08-.12,7.56-.15L933,99.5s0,0,0,0a2,2,0,0,0,.35,0c3.7,0,7.32-.07,10.83-.07,9.54,0,18.42.18,26.73.52l1.82.08h.34q3.33.15,6.52.33c56.72,3.2,85.11,13.91,113.15,22.21l3.46,1,1.41.41h0l.34.09h0c2.18.63,4.38,1.22,6.59,1.8h.05c2.07.54,4.16,1.06,6.29,1.56l.18,0,2.36.54.3.06c1.17.26,2.36.51,3.56.76l.51.1,2.08.4.68.13,2,.37.84.14c.61.1,1.22.21,1.84.3.81.14,1.64.27,2.48.39l.88.13q3.55.51,7.32.92c2.9.32,5.89.58,9,.78l.8.05c4.76.29,9.78.45,15.12.45,3.5,0,7.2-.1,11-.2l.72,0c1.18,0,2.33-.1,3.47-.16l1.9-.11c1.82-.11,3.58-.24,5.29-.39.79-.06,1.57-.14,2.34-.21l3.44-.37a140.47,140.47,0,0,0,15.7-2.67l1.92-.47,1.63-.42h0l.29-.08h0l1.11-.32c.81-.23,1.59-.47,2.36-.71l.41-.13h0l1.08-.35c1.94-.65,3.75-1.33,5.46-2l1.74-.75.09,0c.62-.28,1.22-.57,1.81-.85l.09,0q1.56-.76,3-1.56c1-.53,1.87-1.07,2.75-1.62h0l1.1-.7.9-.6c1.38-.94,2.66-1.91,3.87-2.88.9-.73,1.77-1.48,2.59-2.22l.82-.75h0c1-.94,2-1.88,2.87-2.82l.91-.94,1.17-1.26c1.54-1.67,3-3.33,4.47-4.94,1.12-1.24,2.24-2.44,3.4-3.61.45-.47.91-.93,1.38-1.37s1-.89,1.44-1.32l.88-.76c.17-.16.35-.3.53-.44s.67-.55,1-.81a.18.18,0,0,1,.07,0c.18-.15.37-.29.56-.42s.38-.28.57-.41c.36-.26.72-.51,1.1-.75l.08,0c.39-.27.8-.52,1.22-.76a35.81,35.81,0,0,1,5.3-2.61l0,0,.05,0h.06l0,0,1.55-.57h0l.67-.23.89-.28c.9-.27,1.84-.52,2.82-.74a69.9,69.9,0,0,1,15.93-1.61c1.55,0,3.14,0,4.8.06.91,0,1.84.07,2.79.14h0l.21,0c1.34.08,2.66.18,4,.29s2.58.24,3.85.39h0c3.33.36,6.52.81,9.63,1.35l.14,0h0l1.76.31c19.53,3.59,35.39,10.28,54.24,17.43h0c3.7,1.4,7.51,2.82,11.49,4.24,1.65.59,3.32,1.18,5,1.77l.07,0q2.31.8,4.68,1.57l3.15,1,2.37.76h0c19.14,5.95,42.47,11.44,74,14.9l1.92.2h0l4.72.49h0c7.42.72,15.28,1.33,23.63,1.8l3.61.2c2.13.11,4.3.22,6.49.31l8.2.35,7.59.31,7.5.29,13.15.48c29.82,1,57.72,1.57,84.86,1.57,29.83,0,58.66-.71,87.86-2.32h0q7.8-.4,15.66-.94a.17.17,0,0,0,.1,0h0q1.62-.09,3.24-.21,12.93-.87,26.08-2a0,0,0,0,0,0,0l.33,0,6.13-.54,3.29-.3c28.74-2.63,58.59-6.17,90.75-10.76q4.11-.58,8.05-1.2c.46-.06.91-.13,1.37-.21a.45.45,0,0,0,.16,0c1.12-.16,2.23-.34,3.33-.52,10.4-1.66,19.94-3.42,28.72-5.23l.52-.11.72-.15.16,0c4.45-.94,8.7-1.88,12.78-2.84l.74-.18h0l1-.23a425.19,425.19,0,0,0,52.64-16.06l.59-.23c10.78-4.08,19.76-7.92,28.13-11.19l2.51-1,.09,0,1.86-.7.12,0c.34-.13.67-.26,1-.37A138.93,138.93,0,0,1,2026.62,73a101.92,101.92,0,0,1,12.9-2.07c.38,0,.77-.08,1.17-.1h0c3.12-.27,6.38-.41,9.82-.41,2.4,0,4.9.1,7.5.2A55.48,55.48,0,0,1,2072.22,73a25.25,25.25,0,0,1,5.61,2.57c.3.19.59.39.86.58l.13.1c5.29,3.86,6.58,9.33,6.28,15.34,0,.49,0,1-.1,1.47-.08,1-.2,2-.35,3-.8,5.44-2.37,11.1-3.08,16.28-.86,6.3-.45,11.89,4.14,15.48a12.61,12.61,0,0,0,1.85,1.22l.17.09a23.33,23.33,0,0,0,6.93,2.22,44.46,44.46,0,0,0,7.2.6c1.18,0,2.35-.05,3.5-.15h0a47.89,47.89,0,0,0,9.86-1.91l.05,0c1.42-.42,2.83-.9,4.23-1.43a103.35,103.35,0,0,0,13.29-6.32h0l.43-.23q2.1-1.17,4.21-2.39c9.64-5.58,19.56-11.93,30.7-16.58,1.69-.71,3.42-1.38,5.18-2,2.39-.86,4.85-1.62,7.37-2.26h0l.12,0,1.36-.33a75.31,75.31,0,0,1,17.41-2q3.6,0,7.2.3a94.78,94.78,0,0,1,28.52,7.51c.24.09.47.19.7.3a.09.09,0,0,1,.06,0q2.3,1,4.53,2.09A146.84,146.84,0,0,1,2266,122.37h0l1.44,1.12.07.06A191,191,0,0,1,2294.89,150h2C2295.86,148.76,2293.68,146.18,2290.51,142.73Z"/></g></g><g id="purple"><path class="cls-2" d="M2200.14,150H643.47c3.29-1.74,11.3-5.93,22.71-11.45l1.65-.79,0,0h0l2.62-1.26h0q4.8-2.29,10.23-4.8l.13-.06,4-1.82,0,0,1-.48c5.78-2.61,12-5.36,18.56-8.16h0c.24-.11.49-.21.73-.3l.18-.08h0c.48-.22,1-.42,1.44-.62l4.3-1.8h0c16.48-6.85,34.85-13.88,53.93-20.08h0l2.57-.81h0l.18-.06A458.79,458.79,0,0,1,818,84.19c3.13-.63,6.24-1.22,9.34-1.74l.12,0,1.3-.22,3.06-.49c58.56-9.06,74.38,8.12,102.67,15.52,2.44.64,5,1.21,7.65,1.67.52.1,1,.18,1.58.27l.22,0c10.57,1.65,23.2,1.77,40-1,1.9-.31,3.85-.66,5.87-1.06h0l1.74-.34h.08l1.72-.35c3.06-.64,6-1.37,8.78-2.17h.11c.61-.17,1.2-.35,1.79-.53h0c1.72-.51,3.41-1.06,5-1.65h0c39.95-14.18,52.7-44.43,78.39-63.42h0l.34-.26.48-.34c12.09-8.72,27.07-14.95,49-15.91h0l1.84-.07h0a171.57,171.57,0,0,1,41.19,4h0l.27.07c36.15,8.2,62.58,27.51,88.72,48.52l.63.51.11.08,3,2.41c9.15,7.41,18.33,15,27.93,22.27l1.51,1.15h0v0h0l2,1.54h0q4.77,3.57,9.72,7c1.31.92,2.64,1.82,4,2.72.58.4,1.17.79,1.76,1.18l0,0h0a234,234,0,0,0,28.39,16.22l1.89.9h0l1.71.79,0,0a202.71,202.71,0,0,0,38.9,13.15c43.28,9.92,64.8,5.92,82.47-1.72l2.27-1h0l0,0h0l1.94-.91c2.62-1.25,5.19-2.56,7.77-3.91h0l1.33-.7h0l4-2.11a180.92,180.92,0,0,1,17.7-8.28h0a.13.13,0,0,1,.08,0l1.45-.57,0,0c14.51-5.43,33.11-9.24,61.85-7.94a384.47,384.47,0,0,1,46.71,5.27h0c6.07,1,12.15,2.16,18.25,3.38h.06q4.73.95,9.46,2h.11c8.39,1.76,16.79,3.67,25.18,5.63l1.19.27.23.06,1,.23h.13l3.88.91,7.59,1.79h0l2.22.53.55.13,9.76,2.32h0l2.58.61h0l.27.06q6.81,1.62,13.62,3.17l3.81.87h0l.23.05h0c1,.23,2,.45,2.92.66h0c49.91,11.16,98.76,18.8,143.7,6.94,14-3.71,24.19-9.32,31.49-16.16l.07-.07,1.17-1.13c.59-.59,1.15-1.17,1.68-1.77h0c0-.06.11-.12.16-.19a1.9,1.9,0,0,0,.19-.21s0,0,0,0c.24-.26.46-.51.68-.77.64-.76,1.26-1.53,1.85-2.3.18-.24.37-.49.54-.74l0,0a48.14,48.14,0,0,0,2.68-4.11h0c.09-.15.18-.3.26-.46a.44.44,0,0,0,.06-.1c.25-.42.49-.87.72-1.3.43-.79.83-1.59,1.2-2.39a0,0,0,0,0,0,0s0,0,0,0a61.19,61.19,0,0,0,3.25-8.6c.25-.86.49-1.72.7-2.59a.19.19,0,0,0,0-.08q.15-.56.27-1.11a95.73,95.73,0,0,0,2.28-17.9c0-.37,0-.73,0-1.1.68-20.54-3.11-41,.58-53.66a17.45,17.45,0,0,1,.62-1.85,17.94,17.94,0,0,1,2.29-4.37,13.54,13.54,0,0,1,2-2.26,2.7,2.7,0,0,1,.31-.28,17.86,17.86,0,0,1,10.26-3.94c30.63-2.94,46.7,37.34,71.52,71.89l.66.92s0,0,0,0a.1.1,0,0,0,0,0c2.2,3,4.49,6,6.86,9,1.25,1.54,2.52,3.06,3.83,4.55.2.24.41.48.62.71a.17.17,0,0,0,.06.06q1.69,1.92,3.46,3.77c1.08,1.14,2.19,2.26,3.31,3.35.23.24.47.46.69.68l.11.1a91,91,0,0,0,24.23,17,97.54,97.54,0,0,0,48.59,9.32h0c3-.17,5.92-.48,8.81-.87h0l1.4-.2h0c3.34-.49,6.62-1.1,9.86-1.77l.05,0c.52-.1,1-.21,1.57-.33l.1,0c24.35-5.34,45.92-14.72,66.41-11.29,8.65,1.44,14.21,3.84,17.62,6.69.18.14.36.29.53.45t0,0a13.5,13.5,0,0,1,2.13,2.41C2209.2,137.21,2202.47,147,2200.14,150Z"/></g><g id="line_purple" data-name="line purple"><g id="Trazado_28698" data-name="Trazado 28698"><path class="cls-3" d="M2203.72,150H648.09c4-2.35,11.72-6.74,22.11-12.27l1.49-.79h0c.78-.42,1.58-.85,2.39-1.27h0c3.53-1.86,7.33-3.82,11.36-5.86h0l1-.51c5.62-2.84,11.68-5.82,18.11-8.86h0c.19-.09.38-.19.57-.27l.18-.09h0c1.53-.73,3.09-1.46,4.66-2.19h0c17.83-8.28,38.09-16.86,59.18-24.24q1-.36,2-.69l.09,0h0a422.84,422.84,0,0,1,44.35-12.84q4.8-1.09,9.55-2a.53.53,0,0,1,.12,0l1.21-.23c2.79-.53,5.57-1,8.33-1.45,61-9.67,75.63,9.84,106.29,16.79h0c2.49.56,5.09,1,7.83,1.41l1.55.21.22,0a114.64,114.64,0,0,0,25.1,0c1.4-.15,2.82-.32,4.28-.5,5-.65,10.39-1.58,16.23-2.84,50.3-10.82,64.07-44.25,90.15-66.21.13-.12.25-.22.38-.32s.26-.22.39-.33a80.06,80.06,0,0,1,33.2-16.76,102.72,102.72,0,0,1,18.41-2.62l2.17-.11.44,0h1.51c.48,0,1,0,1.45,0h.19c.26,0,.53,0,.79,0h2.94c1.3,0,2.6,0,3.89.1l2.55.12c1.21.07,2.43.15,3.64.24l.38,0,1.76.14.9.09.63,0,.64.06,1.33.14,2.18.25,2.68.34,2,.29c2,.28,4,.61,5.89,1l.64.13a1.75,1.75,0,0,1,.33,0h0c40.05,7.72,68.26,29.19,96.39,52.41l.66.55.12.1c.91.74,1.83,1.5,2.74,2.26,10.66,8.85,21.39,17.87,32.81,26.43h0c.57.44,1.14.86,1.71,1.28l0,0h0c.89.67,1.79,1.33,2.7,2h0q5.33,3.87,10.89,7.56h0c1.47,1,3,1.94,4.47,2.89h0c.64.42,1.29.81,1.94,1.21l0,0a218.83,218.83,0,0,0,25.38,13.55c.68.31,1.37.62,2.07.92l1.83.79h0a196.24,196.24,0,0,0,32.4,10.58c36.72,8.61,57.78,7,74.11,1.5h0c1-.32,1.88-.64,2.8-1l0,0h0q1.14-.42,2.25-.87h0l.22-.09.2-.08c1.06-.42,2.1-.88,3.13-1.34l1.49-.67,0,0c1.22-.57,2.42-1.15,3.61-1.75h0l.48-.24.22-.12.68-.34h0c1.38-.7,2.74-1.42,4.1-2.14h0c2.64-1.4,5.28-2.85,8-4.28l1.5-.79,2.34-1.21c.77-.4,1.55-.78,2.34-1.17l.81-.4c.53-.27,1.06-.52,1.61-.78h0l.82-.38c.17-.08.34-.17.51-.24h0l.07,0,1.06-.5h0l.33-.14h0c.45-.21.89-.41,1.35-.6h0c.57-.25,1.14-.5,1.72-.73h0c.29-.13.58-.25.88-.36l.88-.37.9-.36,1.84-.7c1.23-.45,2.49-.9,3.79-1.32l1-.33,2-.62,1-.32c.68-.19,1.37-.39,2.06-.57.36-.11.72-.2,1.09-.3.71-.19,1.42-.37,2.15-.54h0c.36-.08.72-.17,1.09-.24.74-.18,1.49-.35,2.26-.51l1.16-.24h0c.77-.16,1.54-.31,2.33-.45l1.25-.23q3-.51,6.28-.92c.29,0,.58-.08.87-.11.52-.07,1-.12,1.58-.18s1-.12,1.57-.17.83-.08,1.25-.12l.41,0,.15,0,1-.08,1.42-.11c.48,0,1-.08,1.45-.1,6.2-.39,13-.5,20.51-.23l1.91.07.37,0,.48,0,3.79.2q3.18.18,6.36.45,1.1.07,2.19.18c.71,0,1.43.12,2.15.2s1.4.12,2.1.2c1.06.1,2.11.2,3.16.32s2.12.23,3.17.35l3.47.42,3.44.45a0,0,0,0,0,0,0h0l3.6.5,2.07.31c.29,0,.57.08.86.12s.67.1,1,.15l3.27.52c.6.1,1.2.19,1.8.3l1.8.29a0,0,0,0,0,0,0h0c.55.08,1.1.18,1.64.27s1.17.2,1.76.32l.33,0,.32,0s0,0,0,0h0l3.54.64c1.3.23,2.61.48,3.92.73l3.91.75,2.81.56c2.36.48,4.73,1,7.09,1.46l7.11,1.54c4.67,1,9.35,2.09,14,3.18s9.36,2.19,14,3.31l1.23.31h0l.24.05,4.91,1.19,15.08,3.66h0l8,1.92h0l1.46.35,2.32.55h0l.26.07.39.1h0c.51.11,1,.23,1.54.36h.09q7.57,1.8,15.12,3.48h0l3.94.88h0l.24.05h0c1,.22,1.9.42,2.86.63h0c39.73,8.55,78.64,13.92,115.26,7.73l.88-.16c1-.17,2-.35,2.92-.54l2.92-.58,3-.66c2-.46,4-1,6-1.51a92.07,92.07,0,0,0,12.87-4.45q.72-.3,1.41-.63l1.81-.86c.53-.27,1-.52,1.54-.79s1-.53,1.5-.8l1.25-.71a58.93,58.93,0,0,0,6.48-4.34l.09-.06c.52-.39,1-.8,1.51-1.21h0c.74-.61,1.46-1.23,2.15-1.86l.38-.37c.08-.06.15-.14.22-.2s0,0,0,0c.27-.26.54-.51.8-.78.77-.76,1.5-1.53,2.2-2.31a49,49,0,0,0,4.06-5.17h0c.11-.16.22-.32.32-.48h0l.07-.11c.3-.45.6-.91.88-1.37a55.88,55.88,0,0,0,4.63-9.29c.31-.79.6-1.59.87-2.38l0-.09c.12-.35.24-.7.34-1a84.64,84.64,0,0,0,3.66-19.94c0-.48.07-1,.1-1.45,1.27-20.44-2.43-41.24-.05-55.2.09-.55.19-1.1.3-1.63a24.37,24.37,0,0,1,2.68-7.27,14.59,14.59,0,0,1,5.49-5.48c.19-.12.39-.22.59-.32a1.19,1.19,0,0,1,.16-.08h0a20.15,20.15,0,0,1,7.08-1.91,30.23,30.23,0,0,1,14.32,2c22.48,8.9,37.24,43.8,58.69,73.71.23.33.47.65.7,1,0,0,0,0,0,0l0,0q3,4.09,6.11,8,2.09,2.59,4.27,5.1l.61.69,0,.06c1.3,1.47,2.64,2.92,4,4.32q1.68,1.76,3.43,3.41l.71.68.11.1a89.86,89.86,0,0,0,22.38,15.63,106.27,106.27,0,0,0,12.4,5c.21.08.43.14.64.21l.09,0,0,0,.19,0a92.23,92.23,0,0,0,19.51,4h0c1.7.17,3.38.28,5.05.35h.22c1.18,0,2.35.06,3.52.07h0c12.59,0,24.43-2.28,35.68-5.17h0q2.09-.53,4.14-1.08l0,0,1.66-.44h0l.49-.13h0c14.55-4,28.16-8.35,41.21-8.9l1.39,0h1.52c1.08,0,2.15,0,3.23.1.77,0,1.54.12,2.3.19l.42.05,1.46.18c.52.07,1,.15,1.55.24,9.8,1.67,15.63,4.91,18.86,8.78.15.18.29.35.41.52a.07.07,0,0,1,0,0,14.68,14.68,0,0,1,1.67,2.77C2211.38,135.77,2206.24,145.87,2203.72,150Z"/><path id="Trazado_28651" data-name="Trazado 28651" class="cls-4" d="M2208.61,127.15l-.12-.26a15.5,15.5,0,0,0-1.67-2.82l0,0c-.12-.17-.26-.34-.4-.51-3.73-4.65-10.34-7.85-19.68-9.45a63,63,0,0,0-9.5-.76c-12.1,0-24.6,3.51-37.8,7.21l-1.42.39-.48.15-1.88.52-3.34.93c-5.15,1.42-10.42,2.78-15.88,3.88a117.81,117.81,0,0,1-24.7,2.75q-1.76,0-3.51-.06c-.83,0-1.66-.07-2.49-.13h-.16c-1.49-.09-3-.22-4.47-.38a94.37,94.37,0,0,1-31-9,67.84,67.84,0,0,1-9.6-5.41,92,92,0,0,1-8.8-6.63c-1.17-1-2.32-2-3.45-3.08a.43.43,0,0,1-.11-.12c-.24-.21-.49-.43-.73-.66q-1.77-1.67-3.46-3.4c-1.42-1.45-2.81-2.92-4.15-4.43l0-.06q-.32-.34-.6-.69c-1-1.15-2-2.3-3-3.49-.47-.57-1-1.15-1.41-1.73-2-2.52-4-5.1-5.91-7.71h0a.08.08,0,0,1,0,0c-.24-.32-.47-.65-.7-1-6.25-8.66-11.93-17.78-17.45-26.71-8.2-13.09-15.9-25.51-24.3-34.61a54.63,54.63,0,0,0-13.5-11c-.67-.37-1.35-.73-2.05-1a34.44,34.44,0,0,0-5.45-2,33,33,0,0,0-8.1-1c-1.1,0-2.2.09-3.3.19a21.82,21.82,0,0,0-6.4,1.51,16.35,16.35,0,0,0-2.52,1.33,16,16,0,0,0-2.28,1.8,16.93,16.93,0,0,0-4.31,6.6,28.51,28.51,0,0,0-1.09,3.45c-.08.37-.16.74-.23,1.11-.13.59-.24,1.17-.34,1.76a58.45,58.45,0,0,0-.83,11c-.1,5.12.2,10.62.5,16.5a251.27,251.27,0,0,1,.31,27.66c0,.44,0,.89-.09,1.33a85.74,85.74,0,0,1-3.33,19c-.1.36-.21.72-.33,1.07a.29.29,0,0,0,0,.09c-.21.62-.42,1.23-.64,1.85-.07.19-.14.39-.22.58a53.48,53.48,0,0,1-3.75,8.05s0,0,0,0a0,0,0,0,1,0,0c-.48.85-1,1.69-1.53,2.51a3,3,0,0,1-.18.3l-.73,1.08a.39.39,0,0,1-.08.1c-.1.16-.22.32-.34.49a51,51,0,0,1-6,7.05l-.81.78a.05.05,0,0,1,0,0,2.34,2.34,0,0,1-.23.22l-.53.49-.32.26c-.73.65-1.48,1.25-2.24,1.85-.53.42-1.06.82-1.6,1.21l-.1.07a62.86,62.86,0,0,1-8.34,5.14,92.66,92.66,0,0,1-17.1,6.45,175.54,175.54,0,0,1-24.1,4.64,207.57,207.57,0,0,1-24.8,1.42,271.49,271.49,0,0,1-30.7-1.8c-9.7-1.14-20-2.65-31.3-4.74q-8.18-1.5-16.47-3.27l-2.88-.62-.23,0-4-.88c-4.37-.95-8.75-1.95-13.13-3h-.06l-1.73-.41-3.09-.72h0l-.26-.07-.87-.2-1.4-.34-9.4-2.24h0l-10.48-2.54-5.34-1.3-4.88-1.18-.25-.07h0c-.41-.09-.82-.18-1.24-.29-15.78-3.79-31.82-7.52-47.68-10.63-4.65-.91-9.12-1.72-13.43-2.46l-3.85-.64h0c-4.22-.69-8.31-1.3-12.3-1.83l-1.82-.22c-9.7-1.22-18.72-2.07-27.48-2.43-3.7-.19-7.4-.29-10.9-.29a174.07,174.07,0,0,0-25,1.71,123.27,123.27,0,0,0-19.5,4.46,117,117,0,0,0-13.78,5.32h0l-1.37.65-.07,0c-4.82,2.26-9.26,4.65-13.64,7l-4.74,2.53h0c-1.37.73-2.73,1.44-4.11,2.13q-.7.36-1.41.69h0c-2.88,1.42-5.82,2.75-8.91,3.93-.77.3-1.55.58-2.34.86l-.06,0-1,.35c-.65.21-1.3.42-1.95.61a94.79,94.79,0,0,1-11.45,2.71,99.94,99.94,0,0,1-16.3,1.23c-12.6,0-27.1-2-44.3-6.07a196.55,196.55,0,0,1-30.65-9.89l0,0c-.63-.25-1.25-.52-1.87-.78l-2.1-.91a216.92,216.92,0,0,1-24.88-13l0,0-2-1.21q-2.31-1.44-4.57-2.91h0q-5.64-3.66-11-7.53c-1-.68-1.92-1.37-2.87-2.08,0,0,0,0,0,0l-1.78-1.3c-10.63-7.9-20.65-16.22-30.55-24.46l-3.14-2.62c-.89-.74-1.79-1.49-2.7-2.23l-.12-.1-.67-.55c-6.21-5.14-12.57-10.29-19-15.17a259.27,259.27,0,0,0-27.1-18.3,164.64,164.64,0,0,0-30.5-14,149.7,149.7,0,0,0-17.1-4.74c-1.42-.3-2.85-.59-4.28-.86h0l-.52-.1h0c-4.59-.85-9.22-1.5-13.88-2-5.48-.56-11-.84-16.5-.85-1.49,0-3,0-4.46.09h0c-.76,0-1.52.06-2.28.11-2.86.15-5.71.41-8.55.75a93.81,93.81,0,0,0-13.2,2.56l-1,.28a78.57,78.57,0,0,0-20.39,9,95.45,95.45,0,0,0-9.94,7.18l-.33.27-.45.36c-2.07,1.74-4.07,3.57-6,5.46-5,4.84-9.6,10-14.4,15.36-8.1,9.2-16.6,18.58-27.4,26.64a100,100,0,0,1-18.2,10.81,109,109,0,0,1-23.5,7.68c-12.6,2.65-23.5,4-33.5,4A96.92,96.92,0,0,1,952.23,94L952,94l-1.57-.17-1.13-.14q-3.43-.43-6.81-1.16h0c-1.54-.33-3.06-.7-4.58-1.12a170.86,170.86,0,0,1-20-7.11c-14-5.59-28.5-11.47-52.5-11.47a191.16,191.16,0,0,0-30.6,2.65c-2.87.47-5.79,1-8.75,1.56l-1.24.23a.23.23,0,0,0-.11,0q-4.73.92-9.6,2a431.39,431.39,0,0,0-42.61,12.28l0,0h0l-1.78.62-2.75.95q-10.56,3.75-21,7.86-11.28,4.44-22.38,9.29-9,3.94-17.95,8.16l-1.09.53-4.4,2.09-.71.34c-5.17,2.49-10.07,4.9-14.63,7.21l-1,.51,0,0-3.84,2-.13.07c-3.26,1.67-6.32,3.26-9.14,4.76q-1.22.63-2.37,1.26h0l-1.48.79q-3.23,1.73-5.91,3.21c-7.4,4.06-12.72,7.15-15.41,8.72h1.79c4.11-2.39,11.8-6.78,22.15-12.29l1.49-.78,0,0c.79-.42,1.6-.85,2.42-1.27,3.5-1.85,7.26-3.79,11.25-5.81h0l1-.51c5.7-2.87,11.86-5.89,18.39-9l.75-.35h0l1.15-.55,3.51-1.64c17.73-8.21,37.85-16.73,58.79-24.05l2-.7h0l.1,0a420.82,420.82,0,0,1,44.5-12.87q4.8-1.09,9.56-2l.11,0,1.21-.25c2.75-.51,5.48-1,8.2-1.42a188.59,188.59,0,0,1,30.4-2.65c36.82,0,51.15,13.78,75.9,19.38h0c2.49.57,5.08,1,7.81,1.43l1.56.2.22,0h0a102.07,102.07,0,0,0,11.89.68,124.71,124.71,0,0,0,13.28-.74c1.4-.15,2.82-.32,4.28-.5,5-.67,10.31-1.61,16.14-2.84,50.32-10.82,64.11-44.26,90.2-66.24l.38-.32.39-.32A79.89,79.89,0,0,1,1120.4,7.79a103,103,0,0,1,18.54-2.64c.71,0,1.44-.08,2.17-.1h1.94c.48,0,1,0,1.45,0h.19c.26,0,.53,0,.79,0h.84l2,0h.06c1.3,0,2.6,0,3.89.1l2.55.12c1.21.07,2.43.15,3.64.24l.38,0,1.76.14.9.09.63,0,.55.06,1.42.14,2.18.25,2.68.34,2,.29c2,.29,3.88.61,5.79,1l.76.14.33.06c40,7.75,68.17,29.21,96.3,52.43l.66.55.11.09,2.75,2.27c10.64,8.83,21.35,17.83,32.75,26.36.57.44,1.14.87,1.72,1.28l0,0c.89.67,1.8,1.32,2.7,2,3.56,2.58,7.17,5.1,10.9,7.56h0q2.22,1.47,4.48,2.89c.64.41,1.27.81,1.92,1.2h0l0,0a217.72,217.72,0,0,0,25.45,13.59l2,.91,1.85.8h0a197.18,197.18,0,0,0,32.4,10.57c18.3,4.37,32.7,6.07,44.6,6.07a90.5,90.5,0,0,0,29.65-4.57c.93-.31,1.86-.63,2.76-1h.06c.76-.29,1.52-.58,2.26-.88l.2-.09.2-.08c1.06-.42,2.1-.88,3.13-1.34l1.49-.67,0,0c1.22-.57,2.42-1.15,3.61-1.75h0l.48-.24.22-.12.68-.34h0c1.38-.7,2.74-1.42,4.1-2.14h0c2.64-1.4,5.28-2.85,8-4.28l1.5-.79,2.34-1.21c.77-.4,1.55-.78,2.34-1.17l.81-.4c.53-.27,1.06-.52,1.61-.78h0l.82-.38c.17-.08.34-.17.51-.24h0l.06,0,1.07-.49h0l.32-.15h0c.45-.21.89-.41,1.35-.6h0c.57-.25,1.14-.5,1.72-.73h0c.29-.13.58-.25.88-.36l.88-.37.9-.36,1.84-.7c1.23-.45,2.49-.9,3.79-1.32l1-.33c.66-.21,1.32-.42,2-.62l1-.32c.68-.19,1.37-.39,2.06-.57.36-.11.72-.2,1.09-.3.71-.19,1.42-.37,2.15-.54h0c.36-.08.72-.17,1.09-.24.74-.18,1.5-.35,2.26-.51.38-.09.77-.17,1.16-.24h0c.77-.16,1.54-.31,2.33-.45l1.25-.23c2-.35,4.11-.67,6.28-.92.29,0,.58-.08.87-.11.52-.07,1-.12,1.58-.18s1-.12,1.57-.17.83-.08,1.25-.12l.41,0,.15,0,1-.08,1.42-.11c.48,0,1-.08,1.45-.1q5.87-.41,12.47-.4c2.56,0,5.25,0,8,.17l1.91.07.37,0,.48,0,3.79.2c2.12.12,4.24.28,6.36.45q1.1.07,2.19.18c.71,0,1.43.12,2.15.2s1.4.12,2.1.2c1.06.1,2.11.2,3.16.32s2.12.23,3.17.35l3.47.42,3.45.46h0l3.6.5,2.07.31c.29,0,.57.08.86.12s.67.1,1,.15l3.27.52c.6.1,1.2.19,1.8.3l1.81.3h0c.55.08,1.1.18,1.64.27s1.17.2,1.76.32l.33,0,.33.06h0l3.54.64c1.3.23,2.61.48,3.92.73l3.91.75,2.81.56c2.36.48,4.73,1,7.09,1.46l7.11,1.54c4.67,1,9.35,2.09,14,3.18s9.33,2.2,14,3.32l1.23.31.25,0,4.91,1.19,15,3.66,7.91,1.9,1.54.37,2.33.55.24.07h0l.34.08,1.54.37h0c5.08,1.2,10.14,2.38,15.2,3.5l3.94.88.25.05,2.84.63c27.84,6,55.28,10.44,81.8,10.44a190.9,190.9,0,0,0,33.62-2.72l.88-.16c1-.17,2-.35,2.92-.54l2.92-.58,3-.66c1.95-.43,3.89-.91,5.83-1.41a91.29,91.29,0,0,0,13.06-4.55q.72-.3,1.41-.63l1.81-.86c.53-.27,1-.52,1.54-.79s1-.53,1.5-.8l1.25-.71a62.49,62.49,0,0,0,6.42-4.33.47.47,0,0,1,.09-.06c.51-.4,1-.8,1.49-1.21.73-.6,1.44-1.22,2.12-1.86l.41-.38.23-.21s0,0,0,0c.27-.26.54-.51.79-.78,1-1,2-2,2.83-3.06l0-.05a49.92,49.92,0,0,0,3.33-4.33l.32-.47.08-.12c.3-.45.59-.91.87-1.36a55.09,55.09,0,0,0,4.68-9.5c.31-.79.59-1.6.86-2.4l0-.09c.12-.35.24-.7.35-1.06a86.32,86.32,0,0,0,3.56-19.78l.09-1.42c1.25-20.45-2.43-41.26,0-55.19.09-.57.2-1.12.32-1.65a24.38,24.38,0,0,1,2.54-7,14.57,14.57,0,0,1,5.8-5.77c.19-.12.39-.22.59-.32a1.19,1.19,0,0,1,.16-.08h0A20.2,20.2,0,0,1,1934,5.9c1.1-.1,2.2-.19,3.2-.19a30.11,30.11,0,0,1,11,2.08c22.61,8.78,37.38,43.78,58.87,73.75l.69,1,0,0a0,0,0,0,0,0,0q3,4.11,6.14,8c1.38,1.72,2.81,3.43,4.26,5.09l.62.69a.15.15,0,0,0,0,.06q2,2.2,4,4.31,1.7,1.74,3.45,3.41l.7.67.11.1a89.5,89.5,0,0,0,22.39,15.59,92.22,92.22,0,0,0,12.49,5c.21.08.43.14.64.21l.09,0,0,0,.19,0a95.31,95.31,0,0,0,19.41,3.91c1.66.16,3.33.27,5,.35h.22c1.15,0,2.3.07,3.46.08h.45c12.73,0,24.68-2.4,36-5.33h0l4.05-1.07h0l1.71-.47.51-.14c14.4-3.94,27.86-8.19,40.79-8.68l1.39,0h1.52c1.08,0,2.16,0,3.23.1.77,0,1.54.11,2.3.19l.42.05,1.46.18c.48.08,1,.15,1.45.24,9.8,1.7,15.63,5,18.86,8.83a4,4,0,0,1,.41.51s0,0,0,0a13.73,13.73,0,0,1,1.67,2.76c3.95,8.46-1.2,18.54-3.72,22.65h1.07a42.32,42.32,0,0,0,3-6,26.08,26.08,0,0,0,2.1-8.06A17.21,17.21,0,0,0,2208.61,127.15Z"/></g></g><g id="red"><path class="cls-2" d="M2397.61,150H574.51c3.76-.93,10-2.49,18.17-4.57,3.77-1,8-2,12.47-3.2h0l2.33-.61,3.77-1h0l.06,0,3.1-.82,5.47-1.44.07,0,9.07-2.42,6.15-1.66,1.2-.32.31-.09h0l8.06-2.19c10.45-2.87,21.48-6,32.73-9.2l0,0a1.81,1.81,0,0,0,.31-.09l1-.28c13.74-4,27.79-8.18,41.46-12.49,1.46-.46,2.87-.92,4.24-1.39a121.86,121.86,0,0,0,22.38-9.8c32.08-18.74,9.38-36.53,46-35.61,1.2,0,2.31.09,3.35.17a37.78,37.78,0,0,1,5.63.82h0l.49.13c7.38,1.94,8.71,6.19,12.71,11.57l.58.76a.18.18,0,0,1,.05.07c.67.85,1.41,1.73,2.26,2.63,6.7,7.09,20.08,15.53,56.11,23.17l3.52.72h0l2.48.49c5,1,10.31,1.94,16.09,2.87q4.66.77,9.7,1.5l2,.3.29,0c12.43,1.78,26.56,3.47,42.67,5l1.36.13.19,0,5.57.52,2.59.24h0q6.36.58,13.09,1.13h.14l8.44.66c41.34,3.15,75.93,5.57,105.79,7.33l8.1.48h.06l5,.28c40.24,2.23,71.67,3.17,100,3q3.62,0,7.15-.06c1.39,0,2.77,0,4.15-.06h.15c43.5-.7,81.3-4.06,135.82-9.34l9.2-.89h.07l1.68-.16,7-.68q10-1,18.81-2l4.36-.52.17,0,2.46-.31h.16l3.19-.4c2.76-.36,5.44-.73,8-1.09h0c32.42-4.6,51.93-9.79,65.9-14.49l.07,0,1.57-.53.63-.22c22.91-7.94,30.8-14.26,60.74-13.48,2.8.08,5.79.21,9,.41,3.45.22,6.69.51,9.74.89h.29c23.6,2.89,36.22,10.1,50.91,17.87l2.39,1.26a0,0,0,0,0,0,0h0c4.29,2.25,8.8,4.53,13.86,6.73h0c11.92,5.22,26.83,10.11,48.76,13.5l1.34.21.29,0q3,.45,6.12.85,6,.78,12.78,1.41l1,.1h0c2.65.24,5.4.45,8.23.66h.15l3.39.23,7.1.44,4.54.28c.16,0,.32,0,.47,0h0l.65,0h.12l5.06.28c14.18.79,27.55,1.36,40.33,1.7,3.77.1,7.48.18,11.15.24h.78l7.33.09h0c7.31.06,14.45,0,21.48-.09h.24a702.55,702.55,0,0,0,97.4-8.32l1.56-.24.12,0,.72-.11h0l.75-.12.86-.14h0l.13,0,3.14-.5c8.29-1.35,16.77-2.86,25.5-4.52h0l1.6-.31,3.06-.6c7.9-1.54,16-3.21,24.4-5,25.55-5.51,40.74-12.4,50.71-19.63q2-1.44,3.73-2.91l.09-.07.8-.69a69.77,69.77,0,0,0,11.42-13l.34-.5.06-.07c.35-.52.71-1,1.07-1.55,3.9-5.68,7.31-11,13-15.3a33.44,33.44,0,0,1,3.72-2.49c6.27-3.68,15-6.41,28.53-7.72q1.53-.15,3.15-.27l1.51-.11a101.76,101.76,0,0,1,12.53-.12c2.58.14,5,.39,7.37.74l.92.15h0a62.36,62.36,0,0,1,18.26,5.83c1.8.89,3.52,1.86,5.19,2.9l1,.62.13.08c17.39,11.3,28.48,29.63,49,44.15.46.33.93.65,1.4,1l.13.08a.15.15,0,0,0,.07,0c10.48,7.14,23.4,13.25,40.71,17l.95.21h.08c1.2.25,2.41.49,3.65.72l2.14.38a210.78,210.78,0,0,0,24.6,2.85h.05l1.14.06c5.42.28,10.68.33,15.8.21,1,0,2.05-.06,3.07-.11h.24l2.35-.11c24.37-1.23,45.52-6.39,65.29-10.91h0l.11,0,1-.24h0l.38-.09c8.35-1.9,16.46-3.67,24.48-4.95l.12,0,1.21-.19c1.36-.22,2.72-.41,4.08-.59a132.34,132.34,0,0,1,22.65-1.2,100.41,100.41,0,0,1,10,.88l.73.1h0l.37.06c2.46.37,4.76.81,6.91,1.3l.86.2.08,0q2.94.72,5.49,1.58c31.32,10.54,20.75,36.25,18,41.82h-27.38"/></g><g id="line_red" data-name="line red"><g id="Trazado_28699" data-name="Trazado 28699"><path class="cls-3" d="M2397.61,150H585.43c4.83-2.88,11.52-5.38,19.72-7.77h0l2.17-.63,3.63-1h0l.07,0,3.09-.81h0c1.86-.47,3.78-.95,5.76-1.42l.07,0q4.29-1,8.91-2.07l5.88-1.32,1.13-.25.29-.07c13.28-2.93,28.25-6.09,44.38-9.94l.11,0h0l1.29-.3c6.21-1.49,12.6-3.08,19.12-4.8l4.28-1.14h0l.27-.07h0c8.65-2.33,17.53-4.9,26.55-7.74,18.13-5.72,28.8-11.68,35.42-17.36h0a42.37,42.37,0,0,0,3.44-3.31h0l.1-.11c.42-.46.82-.92,1.2-1.37h0a37,37,0,0,0,2.92-4c.2-.31.38-.62.55-.92s.46-.81.67-1.21.31-.58.44-.86c2-3.89,3-7.37,4.64-10.19a3.45,3.45,0,0,1,.2-.32c.1-.16.2-.32.31-.47l.21-.31.23-.3.27-.35c2.86-3.52,7.71-5.65,19-5.69h0q1.4,0,2.94,0c13.73.34,16.31,4,20,9.49.17.26.35.52.54.79a.22.22,0,0,0,0,.08c.62.92,1.28,1.87,2.05,2.87,5.49,7.16,16.1,16.23,51.61,24.53,1.09.26,2.22.52,3.36.77,0,0,0,0,0,0l2.42.54h0c4.16.9,8.63,1.78,13.44,2.66h0q4.45.81,9.31,1.6h0l2,.32.27,0c11.89,1.9,25.54,3.71,41.24,5.41h0l1.34.14.19,0,5.51.56q7.49.76,15.56,1.49h.14q9.74.87,20.37,1.68c36.51,2.78,67.76,5,95.13,6.7h0l8.23.5h.07l5.12.3h0c40.8,2.38,72.73,3.52,101.13,3.6h5.3c48-.09,86.63-3.27,142.85-8.67l9.49-.92h.07l1.75-.17L1375,117l3.38-.33c3.16-.31,6.22-.62,9.21-.94l3.06-.33h0l3.91-.44.54-.06h0l.16,0h0l.57-.07,2-.24h0l3.18-.38h0l1.64-.2,1.62-.2q3.24-.41,6.33-.83l2-.28h0c1.51-.21,3-.41,4.43-.63q5.63-.79,10.72-1.64h0l4-.66h0l4.69-.82,4.46-.83h0l4.77-.94c1.94-.39,3.83-.79,5.65-1.19l1.74-.39,3.68-.84,1.33-.32,2.59-.63,1.26-.32,1.64-.42.66-.17,2.59-.69,2.48-.69.05,0,2.34-.67,2.24-.67,1.45-.44h0l.07,0,1.62-.51L1478,99h0l2.11-.69,1-.34,2-.69,1-.34c2.59-.9,5-1.78,7.25-2.63l.07,0,1.6-.61c.26-.11.53-.21.79-.3l.78-.3,2.34-.9.68-.26,2.9-1.11.07,0,1.35-.5.07,0,2-.74.69-.25.07,0c.61-.22,1.21-.43,1.82-.63l.88-.29c1.15-.4,2.32-.76,3.49-1.1l2.31-.65,1.38-.35,1-.24,2.11-.46c.26-.06.52-.12.79-.16a3.73,3.73,0,0,1,.46-.09c.21,0,.42-.09.64-.12,1-.19,2-.35,3-.5.6-.09,1.22-.18,1.85-.25l.88-.11,1.64-.17,1.75-.16a151.47,151.47,0,0,1,17.36-.29l2.11.09,2.44.11.56,0h.29l1.92.11.27,0,2.28.16,1.25.1q.33,0,.66.06c.48,0,1,.08,1.44.13,2.86.27,5.56.6,8.13,1l1.27.2c1.26.2,2.49.42,3.69.65l1.19.23,1.12.23c.79.16,1.56.34,2.32.52l1.12.26c1.08.27,2.14.54,3.17.82l2.14.62,1.83.56,1.17.38c1.31.43,2.59.87,3.83,1.35.32.11.63.23.93.35l.92.36h0c1.21.47,2.4,1,3.56,1.47.59.25,1.17.51,1.74.77l.86.39,1.71.8h0l.83.4.84.41.84.41h0c.56.27,1.11.55,1.65.83l.84.42c.55.28,1.1.56,1.64.85h0l1.64.86,1.66.87,1.64.88.84.44h0l2.51,1.34,1.53.8.17.09,1.74.9.8.42h0s0,0,0,0l.89.45,1.79.9h0l1.81.9c.93.45,1.88.91,2.83,1.35l1.93.89,1,.45,2,.89c.69.29,1.39.59,2.09.87l2.13.87,1.17.47h0s0,0,0,0h0l1.64.62.47.18c1,.36,2,.72,3,1.07l.55.19,1.23.42q2.6.89,5.38,1.72l1.41.42c2.54.74,5.2,1.46,8,2.15q1.3.33,2.64.63c2.18.51,4.43,1,6.77,1.46l1.29.26,1.28.24h0l.26,0h0l1.39.26c1.4.26,2.83.5,4.29.75s3,.49,4.61.72l2.19.31,2.37.33h0l1.86.24,2.52.31h0l1.75.21,1.79.2,3.53.37h.15l2.26.22c1.48.14,3,.28,4.5.4l2.56.21h0l4.41.32h0l.44,0h0l1.11.07,2.39.15h.21l5.22.32c11.51.69,22.49,1.26,33,1.69h0c3.43.14,6.81.27,10.15.37a0,0,0,0,0,0,0l.6,0h0c2.24.08,4.46.14,6.67.2,44.7,1.19,82.28-.45,122.49-5.79l1.8-.24h.06l1.56-.21c4.5-.62,9-1.28,13.62-2l.75-.12h0l.13,0,3.18-.5c7-1.12,14-2.34,21.3-3.69h.06l2.32-.43c2.68-.5,5.37-1,8.1-1.55h0c8-1.57,16.3-3.27,24.85-5.11,19.91-4.29,33.53-9.43,43.29-14.9,1.47-.82,2.85-1.66,4.15-2.49l.09-.07c.3-.18.59-.38.88-.57,10.47-7,15.65-14.32,20.28-21.08l.6-.88,0-.07,1-1.39h0a67.61,67.61,0,0,1,6.27-8.06,37,37,0,0,1,6.15-5.31,48,48,0,0,1,15.92-6.7c1.58-.39,3.25-.74,5-1.07a130.33,130.33,0,0,1,14.44-1.71q4.66-.32,8.89-.25h0a72,72,0,0,1,23.53,4,59.72,59.72,0,0,1,6.15,2.6l1.18.59.16.08c19.29,10,30.29,28.56,50,44l1.37,1.07h0l.14.11.37.28a108.54,108.54,0,0,0,35.49,17.62l.86.25.07,0c1.71.49,3.47,1,5.28,1.39,2.55.62,5.19,1.18,7.94,1.69q7.59,1.4,14.8,2.21h.05c6.3.72,12.4,1.13,18.3,1.28l3.24.06H2270c25.93-.06,48.21-4.91,68.82-9.63l.11,0,.77-.17.62-.15c6.95-1.59,13.7-3.16,20.35-4.51l.12,0,1.19-.24c1.34-.26,2.67-.52,4-.76,11-2,21.69-3.34,32.53-3h0q3.95.11,7.9.52l1,.11h.09c1.1.13,2.2.27,3.31.44.93.14,1.84.29,2.72.45,8.29,1.48,14.58,3.76,19.31,6.53h0l.1.06a32.83,32.83,0,0,1,2.92,1.93,23.62,23.62,0,0,1,10,16.37h0a25.48,25.48,0,0,1,.21,3h0a.33.33,0,0,1,0,.14,37.69,37.69,0,0,1-3.43,15.41h-39.8"/><path id="Trazado_28653" data-name="Trazado 28653" class="cls-4" d="M2447.06,133.9a.66.66,0,0,0,0-.14,25.06,25.06,0,0,0-2.39-10.16c-2.1-4.5-5.8-8.3-10.8-11.3l-.26-.15c-.88-.53-1.81-1-2.79-1.51l-.11,0a63.35,63.35,0,0,0-16.14-5.08c-1.17-.23-2.37-.43-3.6-.61-.81-.11-1.61-.22-2.42-.3a.14.14,0,0,0-.09,0c-.37-.06-.74-.1-1.11-.13a114.2,114.2,0,0,0-12-.66q-3.81,0-7.62.24a180.8,180.8,0,0,0-22.13,2.89l-4,.78-1.2.24a.53.53,0,0,0-.12,0c-6.09,1.24-12.25,2.66-18.53,4.12l-3,.69-.55.13-.85.19-.11,0c-9.4,2.14-19.14,4.24-29.39,6a235.21,235.21,0,0,1-38.2,3.3h-1.12l-2.52,0h-.24c-1.1,0-2.2,0-3.31-.07-3.8-.11-7.61-.33-11.41-.7a193,193,0,0,1-19.9-2.7q-3.4-.63-6.76-1.42-2.67-.65-5.31-1.38l-.07,0-.84-.24q-6.27-1.82-12.32-4.24a107,107,0,0,1-19.2-10.2c-1.31-.87-2.57-1.76-3.8-2.68-.16-.1-.31-.22-.46-.33l-.15-.12c-.48-.34-.95-.7-1.41-1.06-8.38-6.45-15.15-13.53-21.78-20.41-8-8.3-15.6-16.2-25.1-22-1-.59-1.95-1.16-2.95-1.68a.37.37,0,0,0-.15-.08c-.38-.22-.77-.42-1.16-.61a62.36,62.36,0,0,0-6-2.68h0q-2.88-1.11-5.87-2a76.06,76.06,0,0,0-20.8-2.6c-2.23,0-4.54.09-6.95.26l-.55,0a132.41,132.41,0,0,0-14,1.66c-1.46.26-2.87.55-4.22.86a52.68,52.68,0,0,0-16.27,6.28c-.93.57-1.8,1.16-2.62,1.76a37.11,37.11,0,0,0-5.47,5,79.27,79.27,0,0,0-6.49,8.51l-.72,1-.24.35,0,.07c-.19.29-.39.57-.6.85-2.12,3.08-4.4,6.06-6.81,8.93a57.37,57.37,0,0,1-11.6,10.4l-1.3.88-.89.57-.1.06c-1.33.85-2.71,1.67-4.16,2.46-10.72,5.94-24.8,10.76-42.75,14.63-10.25,2.21-20,4.2-29.35,6h0l-6,1.12-2,.37h0c-7.87,1.44-15.47,2.73-22.87,3.88l-3.2.49-.14,0h0l-.8.13q-4.29.65-8.51,1.22l-1.19.17H1897l-1.68.23q-6.76.91-13.39,1.67a713.83,713.83,0,0,1-81.77,4.7h-2.53c-5.45,0-11-.05-16.78-.15-2.18,0-4.39-.08-6.63-.14l-.65,0q-5-.11-10.27-.29c-14.22-.47-29.58-1.22-46.66-2.27h0l-.47,0-1.59-.1-1.65-.1-1-.06-2.67-.19h-.13q-7.32-.54-13.89-1.25h0c-5.87-.63-11.3-1.35-16.36-2.15l-4.54-.75h-.13l-1.11-.2-.27,0-1.33-.25a200.31,200.31,0,0,1-24.87-6.19h-.11a165.19,165.19,0,0,1-23.12-9.45h0s0,0,0,0c-1-.49-2-1-2.93-1.48-2.63-1.34-5.15-2.68-7.63-4-7.9-4.2-15.4-8.1-24.6-11.3a129.45,129.45,0,0,0-34.6-6.4c-5.1-.3-9.7-.5-13.9-.5-2.56,0-5,.06-7.2.17-15.76.8-24.57,4.27-36.3,8.73q-9.69,3.89-19.66,7l-.61.19-1.63.5-.07,0q-8.15,2.49-16.43,4.46c-13.94,3.3-30,6.17-48.63,8.66h0c-2.75.36-5.54.72-8.4,1.07-1.09.13-2.2.27-3.31.39h0l-1.91.22-2.6.31h-.17l-4.47.5c-3.24.35-6.56.7-9.94,1h-.2l-16.6,1.62-1.71.17h-.09l-9.35.9h0c-53.91,5.19-92,8.29-138.09,8.5h-5l-6.11,0c-23.57-.13-49.53-1-81-2.68-7.14-.39-14.63-.83-22.54-1.31l-4.87-.3h-.08l-8.12-.52c-25.35-1.62-54.83-3.71-90.2-6.36q-18.43-1.4-34.95-3.06l-5.54-.56-.2,0-1.36-.15c-14.72-1.56-28.16-3.29-40.18-5.17l-.27,0-2-.31-3-.49c-2.15-.36-4.25-.73-6.32-1.1h0q-6.17-1.12-11.81-2.27l-2.65-.55h0l-3.6-.77-4.3-1c-7.7-1.9-14.7-3.8-20.6-5.9-10-3.5-17.5-7.3-22.9-11.6a37.5,37.5,0,0,1-6-5.9,35.51,35.51,0,0,1-2.14-2.9.15.15,0,0,1-.05-.07c-.18-.26-.35-.52-.51-.79-.08-.11-.15-.23-.22-.34-1.9-2.8-3.5-5.2-6.5-7a21.47,21.47,0,0,0-5.7-2.1,49.59,49.59,0,0,0-8.6-.9h-2.6a55.25,55.25,0,0,0-6.17.25c-1.59.15-3.16.37-4.73.65a19.84,19.84,0,0,0-6.7,2.7c-3.3,2.4-4.7,5.7-6.3,9.6a54.39,54.39,0,0,1-3.6,7.5,38.4,38.4,0,0,1-4.28,5.7c-.46.5-.92,1-1.4,1.44l-.11.12c-.36.35-.73.7-1.11,1-.95.84-1.93,1.65-2.94,2.42h0a61.08,61.08,0,0,1-10.35,6.47,142.08,142.08,0,0,1-22.6,9c-6.74,2.13-13.71,4.19-21,6.21h0l-.79.22-.28.08h0l-4.55,1.24c-6,1.61-12.22,3.18-18.68,4.75-2,.48-4,1-5.92,1.42l-1.3.31h0c-11.77,2.78-23,5.23-33.15,7.47l-1.65.36-7.72,1.7-.31.07-1.17.26-6.12,1.37c-6.73,1.52-12.91,3-18.53,4.49h0c-1,.25-1.91.51-2.84.77l-.06,0-1.29.36-2.19.64c-4.57,1.38-8.5,2.73-11.86,4.09a51.66,51.66,0,0,0-9.06,4.57h2c5.31-3.11,12.79-5.79,22-8.37l3.66-1,.08,0,3.16-.81c4.44-1.13,9.2-2.25,14.25-3.39l5.85-1.31,1.12-.25.29-.06c13.36-3,28.42-6.12,44.64-10h0l.12,0h0l1.29-.31q8.91-2.13,18.25-4.56l4.07-1.08h0l.12,0h0l.28-.08c8.87-2.38,18-5,27.24-7.92,18.39-5.81,29.1-11.87,35.7-17.63a42.44,42.44,0,0,0,3.37-3.29l.09-.1h0c.41-.45.8-.9,1.16-1.35a33.37,33.37,0,0,0,2.87-4c.2-.31.38-.62.55-.92s.46-.81.67-1.21l.44-.86c1.93-3.89,2.92-7.38,4.64-10.19a3.45,3.45,0,0,1,.2-.32c.1-.16.2-.32.31-.47l.21-.31.23-.3.27-.35c2.91-3.48,7.87-5.56,19.28-5.56h2.6c13.67.34,16.3,4,19.94,9.42l.53.79.06.07c.61.92,1.28,1.88,2,2.88,5.49,7.16,16,16.22,51.41,24.53,1.09.27,2.21.52,3.34.77h0l2.41.53c4.2.91,8.72,1.81,13.59,2.69h0c3,.55,6.06,1.08,9.3,1.61l2,.32.28,0h0c11.91,1.91,25.59,3.73,41.33,5.43l1.35.14.19,0,5.51.57,2.56.26h0q15.48,1.55,33.52,2.92c36.7,2.77,68.07,5,95.53,6.69l8.28.5h0l5.14.3c40.45,2.36,72.18,3.5,100.43,3.59H1209c48.2-.08,86.85-3.27,143.17-8.73l9.49-.92h.08l1.74-.17L1375,117l3.38-.33c3.16-.31,6.22-.62,9.21-.94l3.06-.33h0l3.91-.44.54-.06h0l.16,0h0l.57-.07,2-.24h0l3.18-.38h0l1.64-.2,1.59-.21,6.36-.82,2-.28h0l4.43-.63c3.75-.54,7.31-1.09,10.72-1.64h0l4-.66h0l4.69-.82,4.46-.83h0l4.77-.94q2.92-.6,5.65-1.19l1.74-.39,3.68-.84,1.33-.32,2.59-.63,1.26-.32,1.64-.42.66-.17,2.59-.69,2.48-.69.05,0,2.34-.67,2.24-.67,1.45-.44.07,0,1.62-.51L1478,99h0l2.11-.69,1-.34,2-.69,1-.34c2.59-.9,5-1.78,7.25-2.63l.07,0,1.6-.61c.26-.11.53-.21.79-.3l.78-.3,2.34-.9.68-.26,2.9-1.11.07,0,1.35-.5s0,0,.07,0c.69-.25,1.36-.51,2-.74l.69-.25s0,0,.07,0c.61-.22,1.21-.43,1.82-.63l.88-.29c1.15-.4,2.32-.76,3.49-1.1l2.31-.65,1.38-.35,1-.24c.69-.16,1.39-.32,2.11-.46.26-.06.52-.12.79-.16a3.73,3.73,0,0,1,.46-.09c.21,0,.42-.09.64-.12,1-.19,2-.35,3-.5.6-.09,1.22-.18,1.85-.25l.88-.11,1.64-.17c.57-.07,1.16-.12,1.75-.16,3.28-.28,6.87-.43,10.88-.43q3.06,0,6.48.14l2.11.09,2.44.11.56,0h.29l1.92.11.27,0,2.28.16,1.25.1q.33,0,.66.06c.48,0,1,.08,1.44.13,2.86.27,5.56.6,8.13,1l1.27.2c1.26.2,2.49.42,3.69.65l1.19.23,1.12.23c.79.16,1.56.34,2.32.52l1.12.26c1.08.26,2.14.54,3.17.82l2.14.62,1.83.56,1.17.38c1.31.43,2.59.87,3.83,1.35.32.11.63.23.93.35l.92.36h0c1.21.47,2.4,1,3.56,1.47.59.25,1.17.51,1.74.77l.86.39,1.71.8h0l.83.4.84.41.84.41h0c.56.27,1.11.55,1.65.83l.84.42c.55.28,1.1.56,1.64.85h0l1.64.86,1.66.87,1.64.88.84.44h0l2.51,1.34,1.53.8h0l.15.09,1.74.9.8.42h0s0,0,0,0l.89.45,1.79.9h0l1.81.9c.93.45,1.88.91,2.83,1.35l1.93.89,1,.45,2,.89c.69.29,1.39.59,2.09.87l2.13.87,1.17.47h0s0,0,0,0h0l1.64.62.47.18c1,.36,2,.72,3,1.07l.55.19,1.23.42q2.6.89,5.38,1.72l1.41.42c2.54.74,5.2,1.46,8,2.15q1.3.33,2.64.63c2.18.51,4.43,1,6.77,1.46l1.29.25h0l1.28.24h0l.26,0h0l1.39.26c1.4.26,2.83.5,4.29.75s3,.49,4.61.72l2.19.31,2.37.33h0l1.86.24,2.52.31h0l1.75.21,1.79.2,3.53.37h.15l2.26.22c1.48.14,3,.28,4.5.4l2.56.21h0l4.41.32h0l.44,0h0l1.11.07,2.39.15h.14l5.23.33c11.62.69,22.7,1.26,33.35,1.68,3.47.14,6.89.27,10.27.37l.65,0c2.23.07,4.45.14,6.65.19,9,.24,17.66.36,26.12.36a709.71,709.71,0,0,0,96.15-6.19l1.79-.24h.06l1.54-.21q6.6-.91,13.33-2l.76-.12.14,0,3.15-.5q10.49-1.68,21.4-3.7h0l2.28-.42c2.61-.49,5.22-1,7.88-1.52h0c8.17-1.59,16.57-3.32,25.26-5.2,19.87-4.28,33.47-9.4,43.22-14.87q2.2-1.23,4.16-2.49l.09-.06c.3-.18.59-.37.88-.57,10.46-7,15.66-14.28,20.28-21l.6-.87,0-.07c.31-.47.63-.93,1-1.39a69,69,0,0,1,6.27-8.09,36.68,36.68,0,0,1,6.08-5.28h.05a47.6,47.6,0,0,1,16.12-6.82h0c1.55-.38,3.19-.73,4.94-1a129.72,129.72,0,0,1,14.41-1.71c2.6-.2,5-.3,7.4-.3h.56a72.46,72.46,0,0,1,24.66,4.07,59.4,59.4,0,0,1,6.13,2.61l1.18.59.15.09h0c19.22,10.06,30.21,28.59,49.91,44,.45.36.91.71,1.37,1.06l.15.12.37.28a109,109,0,0,0,35.49,17.58l.85.25.07,0c1.71.49,3.48,1,5.29,1.38,2.51.61,5.11,1.17,7.82,1.67q8,1.5,16,2.37,8.51.93,17.07,1.15c1.08,0,2.17.06,3.25.07h2.68c26,0,48.24-4.86,68.84-9.6l.12,0,.76-.18.63-.14c6.95-1.6,13.71-3.17,20.37-4.53a.61.61,0,0,0,.13,0c.4-.07.79-.15,1.19-.24,1.33-.26,2.66-.52,4-.76a160.73,160.73,0,0,1,29.49-3.1c.78,0,1.56,0,2.33,0,2.92,0,5.83.22,8.73.53l1,.1h0l.08,0c1.11.12,2.22.27,3.33.43.93.14,1.83.28,2.71.44,8,1.42,14.2,3.59,18.88,6.23l.11.06a31.35,31.35,0,0,1,2.84,1.8c7.15,5,10,11.3,10.6,17.29a23.85,23.85,0,0,1,.17,2.9v.15a38.1,38.1,0,0,1-3.51,15.13h.8a41.84,41.84,0,0,0,2.43-6.9,33.89,33.89,0,0,0,1.05-6.64.57.57,0,0,0,0-.13C2447.06,135.52,2447.08,134.71,2447.06,133.9Z"/></g></g><g id="green"><path class="cls-2" d="M624.82,150a51.9,51.9,0,0,1,1.87-8c.11-.32.21-.64.32-1h0v0h0c.11-.33.22-.66.34-1,.42-1.14.9-2.33,1.45-3.55a1,1,0,0,1,.07-.15c.05-.11.1-.23.16-.35l.41-.86c4.29-8.75,12.36-18.14,27.34-19.68,8.61-.89,13.6,1.26,18.11,4.6,1,.74,2,1.54,3,2.37l1.53,1.32h0l.12.11.05,0h0c.33.3.65.57,1,.86l.15.13h0c1.24,1.07,2.55,2.17,4,3.27l.13.1.41.31h0l0,0h0l.06.05.12.1h0l0,0a51.42,51.42,0,0,0,5.48,3.54h0c.47.26.94.51,1.43.76h0l.69.34h0l.17.08h0c9.28,4.48,23.29,7.57,47.84,5.82,52.27-3.72,113.47-20,155-33.09l1.89-.6h0l.2-.06h0l2.28-.73h0c4.08-1.31,7.94-2.57,11.55-3.78l3.16-1.06h0L919,98.71h0q4.2-1.45,7.8-2.73,4-1.44,7.67-3c2.33-1,4.53-2,6.63-3h0l.06,0h0l1.29-.63h0c33.08-16.54,37-38.32,44-55.7.4-1,.81-2,1.24-3,3.81-8.7,8.92-16.07,19.73-20.8a48.51,48.51,0,0,1,4.67-1.76,86.5,86.5,0,0,1,21.12-3.57c24.44-1.51,37,2.53,48.32,9.73l0,0c1.5,1,3,2,4.45,3l.86.63,0,0c.3.21.59.43.88.65,9.93,7.38,20.39,16.91,38.79,26.9h0l.12.07c19.94,10.81,49.18,22.16,97.1,31.94l19.77,4c.29.06.58.11.87.18l.12,0,5.75,1.17,18.06,3.64,2.55.51h0l1.16.23h0c14.37,2.89,28.39,5.65,42.15,8.29q5.76,1.11,11.46,2.18h0l.13,0h0l2,.38h0q15.27,2.86,30.22,5.52h0c3.38.59,6.75,1.18,10.11,1.75h0l.32,0h0l5.47.93h0q14.79,2.49,29.45,4.76h0l5.56.85h0l3.61.54h0c24.2,3.59,48.36,6.64,73.11,9.07h0l1.58.16h0l3.36.33c21.91,2.07,44.3,3.66,67.61,4.71l.54,0h0l.72,0h0l6.22.26h0c23.35.92,47.63,1.3,73.27,1.09q7.64-.06,14.72-.28h0l2.44-.07h0l.46,0h0c3.33-.11,6.56-.26,9.71-.42h0c7.82-.41,15.09-1,21.88-1.65l.43,0h0l1.15-.12h0c1.71-.18,3.39-.37,5-.57h0q3.06-.36,6-.76h.07l2.44-.34h0c21.54-3.09,37.51-7.6,50.34-12.68,1-.38,1.9-.77,2.83-1.15l.1,0h0l2-.87c35.73-15.5,46.49-35.13,95.16-37.06,23.11-.92,35.63,2.83,43.48,8.47h0a31.53,31.53,0,0,1,3.87,3.26,0,0,0,0,0,0,0,.08.08,0,0,1,0,0c4.38,4.33,7.06,9.32,10,14.05.16.27.33.53.5.8l.58.9.12.18a37.92,37.92,0,0,0,6.12,7.42c.37.33.75.66,1.15,1l.1.07.35.28c.66.51,1.36,1,2.1,1.48a.57.57,0,0,0,.13.08,28.51,28.51,0,0,0,3.52,1.89h0a38.87,38.87,0,0,0,8.7,2.68,60.1,60.1,0,0,0,6.81.89h0c1.34.1,2.75.18,4.22.21h.42a126.09,126.09,0,0,0,14.52-.63c20.43-1.95,39.23-7.76,57.08-15.31,1.56-.65,3.12-1.33,4.67-2a.27.27,0,0,0,.11,0l1-.45c15.81-7.07,30.92-15.34,45.78-23.25l2.34-1.25h0l.13-.07,1.55-.82h0c14.33-7.59,28.49-14.71,42.89-20,1.75-.65,3.51-1.27,5.27-1.84l.2-.07,1.59-.52h0a133.21,133.21,0,0,1,28-6c19-1.83,29.2.62,35,5.26a18.86,18.86,0,0,1,2.25,2.1h0a0,0,0,0,0,0,0c0,.07.11.13.17.2,9,10.25,4.29,27.54,19.21,36.61h0l.28.17h0a29.68,29.68,0,0,0,2.93,1.51q1.43.64,3.06,1.2c21.45,7.34,27.36-.21,39.85-3.38h0l1.47-.34.13,0a40.92,40.92,0,0,1,8.07-.88c6.35-.1,14.39,1.09,25.37,4.64,11.71,3.79,24.53,9.53,37.13,16l.09,0,.12.06q3.92,2,7.79,4.11h0c1.14.61,2.27,1.22,3.39,1.84l1.42.78,0,0c4.54,2.51,9,5.06,13.27,7.59h0c.63.36,1.25.73,1.86,1.1l0,0c21,12.46,37.92,24.16,42.75,27.55Z"/></g><g id="line_green" data-name="line green"><g id="Trazado_28700" data-name="Trazado 28700"><path class="cls-3" d="M2397.61,150H630.05a44.33,44.33,0,0,1,2.48-8.33c.12-.3.24-.6.38-.9a0,0,0,0,1,0,0c.14-.33.29-.67.45-1a39.91,39.91,0,0,1,2.71-4.94l.11-.17c.17-.26.34-.52.52-.78h0c.11-.16.22-.33.34-.49,4.7-6.59,12.37-12.67,24.78-13.91,7.1-.71,11.74.64,15.67,3,.69.41,1.36.86,2,1.33l.05,0h0l.86.65c.08,0,.15.12.23.18h0l.15.13h0a1.74,1.74,0,0,1,.22.18l.62.5c.21.16.41.33.62.51.8.67,1.61,1.37,2.43,2.08l.12.11.29.24,0,0h0l0,.06h0l0,0h0l.06.05.12.1,0,0c1.25,1.08,2.57,2.19,4,3.3l.25.19.26.2s0,0,0,0c.35.28.72.55,1.09.81a0,0,0,0,0,0,0h0s0,0,0,0l.26.18.35.25h0l.73.5,1.17.76.31.19.73.44.75.44.72.4c9.25,5.06,23.48,8.79,50,6.91,55.29-3.93,120.57-21.95,162-35.32l1.43-.47h0l.21-.07,2.31-.75c6.88-2.25,13-4.35,18.24-6.2h0l1.4-.49,1.51-.55h0c1-.37,2-.74,3-1.12h0q4-1.56,7.57-3.21c2.4-1.09,4.65-2.22,6.78-3.37h0l.07,0c.49-.26,1-.53,1.44-.8C984,73.09,985.44,50,993.67,32.74c.38-.81.79-1.6,1.21-2.38h0a34.57,34.57,0,0,1,14.8-15h0a42,42,0,0,1,4-1.87c6.17-2.48,14.1-4.15,24.53-4.8,14.85-.92,25.33.21,33.8,2.85.43.13.86.27,1.28.42l.92.32.9.33.59.22,1.17.48c.48.19.95.4,1.42.61l.08,0,.07,0c.9.4,1.77.82,2.63,1.27.27.13.53.27.8.42.5.26,1,.53,1.48.81l.12.07,1.56.92.5.3.27.17.66.42,0,0,.07,0,.84.55h0l.68.45c.47.31.94.63,1.4,1l.76.53,1,.72,1,.73c.66.49,1.32,1,2,1.49l0,0c1,.75,2,1.51,3,2.31l1.15.89.93.73,1.89,1.48,2,1.52,1.25,1c1.68,1.29,3.43,2.62,5.28,4,.58.43,1.17.85,1.77,1.28s1.36,1,2.06,1.46,1.41,1,2.13,1.48q2.19,1.48,4.56,3c.7.45,1.42.9,2.15,1.35l1.11.68c.75.46,1.51.91,2.29,1.37l1.89,1.1h0l2.5,1.41q1.59.88,3.27,1.77l2.13,1.11,2.21,1.11,2,1,1.45.7c2,.94,4,1.87,6.1,2.8,1.69.75,3.43,1.5,5.24,2.24,2.89,1.2,5.91,2.39,9.1,3.58h0l3.89,1.42,2,.72c1.34.47,2.72.94,4.12,1.41l2.67.88c1.26.42,2.54.83,3.84,1.24,1.49.47,3,.94,4.55,1.4h0l2.48.74c3.91,1.15,8,2.3,12.3,3.42q3.54.93,7.25,1.85c7.44,1.83,15.42,3.63,24,5.38l12.6,2.57.86.18h0l.11,0,5.75,1.17,14.81,3L1265,89h0c18.92,3.82,37.21,7.45,55.07,10.88q6.1,1.17,12.14,2.3h0l.14,0,2.17.41c9.61,1.8,19.1,3.54,28.53,5.21q5.43,1,10.84,1.88h0q5.49.95,10.95,1.85l.43.07,1.75.29,4.89.8h0l.45.07,5.07.82h0l3.68.59h0l3.49.56.22,0,11.64,1.78c15.82,2.35,31.61,4.48,47.54,6.35.67.08,1.34.15,2,.24l.86.1,1,.11,4.22.48.21,0c2.69.3,5.39.6,8.09.88l1.61.17h0l3.49.36h0c34,3.49,69,5.81,106.64,6.74h0l4.21.1h1.07q9,.21,18.12.29h.26c2.6,0,5.22,0,7.85.05h.45q6,0,12.17,0h1l7-.05,5.65-.07h0a492.51,492.51,0,0,0,51.2-3.23c3.61-.43,7.08-.91,10.41-1.42h0l1.28-.2h0l.3,0h.07l2.36-.38h0l.92-.16h0c23.12-3.94,39.35-9.59,52.29-15.7l2.06-1h0l1.78-.89c29.18-14.67,42-31.23,86.49-33,17.77-.71,29.28,1.35,37.22,4.89l.76.35a35.12,35.12,0,0,1,3.35,1.81l.63.39c.13.07.25.15.37.23a0,0,0,0,0,0,0,37.24,37.24,0,0,1,10.77,11.21q.35.51.66,1l.59.94.13.2c2.07,3.33,4,6.69,6.32,9.76.27.36.55.71.84,1.06l.07.08c.08.1.17.2.24.3h0c.5.59,1,1.16,1.57,1.72a28.84,28.84,0,0,0,3.79,3.25.24.24,0,0,0,.09.06c.34.24.7.47,1.06.71s.74.46,1.13.68l.13.07c.38.22.79.43,1.21.64l.15.08h0l.07,0,.5.24.59.28c.37.16.74.32,1.13.47l.59.23.57.22c.66.24,1.34.46,2.06.67l.14,0h.06l.84.24a0,0,0,0,1,0,0c6.86,1.86,16.12,2.47,29.13,1.22,20.07-1.92,38.58-7.57,56.15-14.92q2.41-1,4.82-2.07a.21.21,0,0,0,.1,0l1.08-.47c16.58-7.36,32.37-16.06,47.91-24.32l2.55-1.35h0l.09,0,1.21-.64C2094.37,68,2108.54,61,2123,55.78q3.22-1.16,6.46-2.17l.17,0h0c.46-.16.93-.3,1.4-.44a131.1,131.1,0,0,1,25.81-5.27c16.48-1.59,26.32,0,32.46,3.52,14,7.92,8.81,25.44,19.21,36.61h0a26.85,26.85,0,0,0,11.32,7c11.27,3.86,18.25,3.6,24.15,2,.52-.13,1-.28,1.53-.44h0l.15-.05c4-1.26,7.66-3,12-4.37,7.84-2.39,18-3.31,37,2.83,12.27,4,25.76,9.87,38.94,16.4h0l3.58,1.79,1.5.76.05,0c5.47,2.79,10.85,5.65,16,8.5l0,0c21.2,11.65,39.08,23,46,27.55"/><path id="Trazado_28655" data-name="Trazado 28655" class="cls-4" d="M2402.87,150c-4.56-3-18.39-11.89-35.89-21.95-9.3-5.31-18.22-10.14-26.68-14.47l0,0-1.5-.77-3.56-1.8-3.72-1.84Q2329.26,108,2327,107l-.12-.06-.09,0A281.22,281.22,0,0,0,2294.88,94c-9.8-3.2-18-4.7-25-4.7a42.58,42.58,0,0,0-10.33,1.21,64.43,64.43,0,0,0-8.87,3c-.92.36-1.83.71-2.75,1l-.17.07h0c-.55.2-1.1.4-1.66.58a31.77,31.77,0,0,1-10.41,1.8,50.12,50.12,0,0,1-15.7-3,27.16,27.16,0,0,1-8.26-4.27l0,0a21,21,0,0,1-5.1-5.6c-2.5-4.1-3.7-8.9-4.9-13.5a64.28,64.28,0,0,0-2.6-8.9,22.22,22.22,0,0,0-5-7.9,22,22,0,0,0-7.25-4.71,20.91,20.91,0,0,0-2.35-.79,56.43,56.43,0,0,0-16.1-2c-3.6,0-7.5.2-11.8.6a125.89,125.89,0,0,0-22.6,4.3c-1.43.41-2.86.84-4.28,1.28l-1.43.45-.18.06q-3.14,1-6.23,2.14-5,1.79-9.88,3.87c-11,4.65-21.8,10.1-32.88,15.94l-1.27.66-.1,0-2.52,1.34-6.63,3.51c-13.4,7.17-27,14.43-41.16,20.68-.35.17-.71.32-1.06.47l-.09.05c-1.59.7-3.2,1.38-4.81,2-17.44,7.28-35.79,12.85-55.68,14.76-4.5.4-8.7.6-12.5.6a65.41,65.41,0,0,1-14.84-1.49l-.19,0-.77-.17c-.54-.13-1.08-.27-1.62-.44a27.71,27.71,0,0,1-3.85-1.41,29.83,29.83,0,0,1-4.63-2.55c-.35-.24-.69-.48-1-.73h0a27.62,27.62,0,0,1-4.12-3.85l-.25-.29-.07-.08c-.3-.34-.58-.69-.86-1a82.91,82.91,0,0,1-5.18-7.79c-.57-1-1.15-1.91-1.75-2.86l-.12-.21-.61-1c-.23-.37-.47-.73-.72-1.09a36.72,36.72,0,0,0-11.2-11.29,41.54,41.54,0,0,0-3.72-2h0a46.08,46.08,0,0,0-10.16-3.5,96.8,96.8,0,0,0-21.6-2.1c-2.2,0-4.5,0-6.9.1a141.09,141.09,0,0,0-21.9,2.4,106.92,106.92,0,0,0-17.21,4.9c-10.29,3.9-18.69,9-27.59,14.4-6.4,3.9-13,7.9-20.8,11.8-.4.2-.8.4-1.21.58-.6.31-1.21.6-1.82.88,0,0,0,0,0,0-.72.35-1.45.69-2.19,1a165.85,165.85,0,0,1-22.64,8.41,250.22,250.22,0,0,1-30.48,6.8l-1.21.19-1.21.18h0c-.92.14-1.85.27-2.77.39l-1.16.16h0c-1.24.17-2.47.32-3.71.47q-2.31.3-4.68.57h0c-7,.82-14.43,1.44-22.11,1.93q-10.17.61-21.27.91c-3.51.09-7.09.16-10.73.19h-.23l-.71,0h0c-1.69,0-3.41.05-5.11.06-2.7,0-5.4,0-8,0-11.46,0-22.7-.12-33.8-.35-3.57-.08-7.14-.17-10.68-.28h0q-.45,0-.9,0c-.74,0-1.48,0-2.21-.06-19.47-.6-38.55-1.59-57.6-3-12.67-.92-25.32-2-38.07-3.31h0l-3.44-.35h0l-1.59-.17c-17.44-1.82-35.09-4-53.29-6.57-7.9-1.14-15.91-2.35-24.11-3.64h0l-3.62-.57-5.21-.83q-4.54-.74-9.19-1.51l-6.18-1-.39-.07q-5.26-.89-10.66-1.83c-11.57-2-23.68-4.21-36.51-6.61l-.12,0-2.13-.41h0l-.13,0-12-2.3c-16.54-3.19-33.57-6.56-51.38-10.15l-.31-.06h0L1264.5,88l-15.65-3.17-5.75-1.17-.11,0h0l-.85-.18-13.08-2.67a515.37,515.37,0,0,1-51.9-13.3,285.82,285.82,0,0,1-35.8-14q-7.49-3.59-14.62-7.81l-.12-.07h0q-4.71-2.77-9.25-5.82c-6.6-4.4-12-8.6-16.8-12.4-4.29-3.31-8.21-6.37-12.26-9-.32-.21-.64-.42-1-.62,0,0,0,0,0,0-.3-.2-.61-.39-.92-.58q-2.33-1.47-4.78-2.74l0,0c-.91-.47-1.84-.93-2.79-1.36a57.78,57.78,0,0,0-13.4-4.2,91.66,91.66,0,0,0-17.5-1.5c-3.1,0-6.3.1-9.7.3-9.93.64-18,2.17-24.54,4.76a40.86,40.86,0,0,0-4.17,1.9,35.48,35.48,0,0,0-7.89,5.54,40.83,40.83,0,0,0-7.93,10.78c-.1.17-.18.34-.27.52-.31.65-.62,1.3-.92,2A113.36,113.36,0,0,0,988,44.25a151.15,151.15,0,0,1-5.8,14.3A65.49,65.49,0,0,1,973,73a69,69,0,0,1-15.8,13.8q-3.28,2.13-6.72,4c-.47.25-.94.51-1.41.75l-.09,0c-1,.55-2.11,1.09-3.18,1.6s-2.41,1.14-3.62,1.68q-4.32,1.94-8.76,3.57h0l-1.81.65-1.38.49,0,0-3,1c-4.38,1.53-10.22,3.51-17.23,5.8l-2.31.74h0l-.22.07-1.5.49c-14.7,4.7-33.79,10.44-55.16,16-18.3,4.7-35.8,8.7-52.2,11.7a479.38,479.38,0,0,1-52.3,7c-4.7.3-9.1.5-13.2.5-13.2,0-23.6-1.7-31.9-5.2a46.83,46.83,0,0,1-7.84-4.18l-.13-.09h0l-.54-.36h0l-1.14-.81c-1.82-1.33-3.44-2.69-5-4l0,0-.58-.5a.86.86,0,0,1-.14-.13l-.32-.27c-1.12-1-2.2-1.89-3.3-2.77a.83.83,0,0,0-.16-.12q-.54-.44-1.08-.84c-.67-.51-1.36-1-2.06-1.45a23,23,0,0,0-13.3-3.82c-1.2,0-2.5.1-3.8.2A36.46,36.46,0,0,0,644,125a35.83,35.83,0,0,0-8.37,8.74l-.38.57-.43.69-.1.16c-.25.41-.49.82-.72,1.24-.62,1.13-1.19,2.28-1.72,3.45-.15.33-.3.66-.44,1,0,0,0,0,0,0-.13.3-.25.6-.37.91a46.51,46.51,0,0,0-1.76,5.31c-.25,1-.46,2-.63,2.95h.82a44.78,44.78,0,0,1,2.45-8.32c.12-.3.25-.6.38-.9v0c.14-.33.29-.67.45-1a40.18,40.18,0,0,1,2.66-4.89l.11-.16c.16-.25.32-.5.5-.76l.35-.51c4.7-6.65,12.38-12.83,24.9-14.08,1.3-.1,2.6-.2,3.7-.2a22.23,22.23,0,0,1,12.2,3.29c.63.39,1.24.8,1.84,1.23h0l.2.15c.28.2.56.42.84.65.08,0,.15.12.23.18h0l.15.13h0a1.74,1.74,0,0,1,.22.18c.21.16.42.32.62.5s.41.33.62.51c.8.67,1.61,1.37,2.43,2.08l.12.11.29.24,0,0h0l0,.06h0l0,0h0l.06.05.12.1,0,0c1.25,1.08,2.57,2.19,4,3.3l.25.19.26.2h0c.36.27.71.54,1.09.81h0s0,0,0,0l.26.18.35.25h0l.73.5,1.17.76.31.19.73.44.75.44.72.4c7.58,4.09,18.46,7.31,36.61,7.31,4.1,0,8.5-.2,13.3-.5,55.2-4,120.36-21.92,161.8-35.26l1.44-.47.23-.07,2.31-.75c6.82-2.23,12.92-4.31,18.12-6.15h0l1.7-.6c.41-.15.82-.29,1.22-.45,0,0,0,0,0,0,1-.37,2-.75,3-1.13,2.72-1.05,5.28-2.13,7.7-3.25s4.65-2.21,6.78-3.36l.08,0c.49-.26,1-.52,1.43-.79C983.84,73.1,985.38,50,993.57,32.76c.39-.81.79-1.61,1.21-2.39a34.66,34.66,0,0,1,14.88-15.16,41.52,41.52,0,0,1,4.07-1.88c6.15-2.47,14.06-4.14,24.44-4.78q5.1-.3,9.6-.3c10,0,17.76,1.15,24.29,3.25.43.13.86.27,1.28.42l.92.32.9.33.59.22,1.17.48c.48.19.95.4,1.42.61l.08,0,.07,0c.9.4,1.77.82,2.63,1.27.27.13.53.27.8.42.5.26,1,.53,1.48.81l.12.07,1.56.92.5.3.27.17.66.42,0,0,.07,0,.84.55h0l.68.45c.47.31.94.63,1.4,1l.76.53,1,.72,1,.73c.66.49,1.32,1,2,1.49l0,0,3,2.31,1.15.89.93.73,1.89,1.48,2,1.52,1.25,1c1.68,1.29,3.43,2.62,5.28,4,.58.43,1.17.85,1.77,1.28s1.36,1,2.06,1.46,1.41,1,2.13,1.48q2.19,1.48,4.56,3c.7.45,1.42.9,2.15,1.35l1.11.68c.75.46,1.51.91,2.29,1.37l1.89,1.1h0l2.5,1.41q1.59.88,3.27,1.77l2.13,1.11,2.21,1.11,2,1,1.45.7c2,.94,4,1.87,6.1,2.8,1.69.75,3.43,1.5,5.24,2.24,2.89,1.2,5.91,2.39,9.1,3.58h0l3.89,1.42,2,.72c1.34.47,2.72.94,4.12,1.41l2.67.88c1.26.42,2.54.83,3.84,1.24,1.49.47,3,.94,4.55,1.4h0l2.48.74c3.91,1.15,8,2.3,12.3,3.42q3.54.93,7.25,1.85c7.41,1.85,15.36,3.64,23.9,5.38l12.68,2.59c.29.05.57.11.86.18l.12,0,5.75,1.17,14.78,3,2,.39h0c19,3.83,37.27,7.47,55.16,10.91h0q6.11,1.16,12.14,2.29a.32.32,0,0,0,.14,0l2.18.41q14.39,2.7,28.48,5.18,5.48,1,10.92,1.91t11,1.85l.43.07,1.68.27c1.63.28,3.27.55,4.9.81h0l.08,0,.33.06,5.08.82,3.7.59h0l3.52.55.22,0,11.64,1.78c15.82,2.35,31.61,4.48,47.54,6.35.67.08,1.34.15,2,.24l.86.1,1,.11,4.22.48.21,0q4,.45,8.1.87l1.6.18h0l3.49.36h0c33.83,3.45,68.67,5.75,106.11,6.68l4.08.1,1,0h0q8.18.18,16.52.27,6.5.07,13.1.08h3.79q3.51,0,7,0h1c2,0,4.06,0,6.09,0s4.21,0,6.27-.08a496.65,496.65,0,0,0,50.41-3.19h0c3.55-.42,7-.89,10.22-1.38h0l1.27-.2.56-.09h0l2.36-.38.72-.12c23.25-3.91,39.57-9.56,52.57-15.67l2.08-1h.06c.6-.3,1.14-.6,1.73-.89,29.28-14.68,42.08-31.27,86.58-33.1,2.4-.1,4.6-.1,6.8-.1,14.06,0,23.63,2,30.51,5.09l.76.35a35.12,35.12,0,0,1,3.35,1.81l.63.39.42.28a37.62,37.62,0,0,1,10.71,11.26l.66,1c.2.31.39.63.58.94a1.37,1.37,0,0,1,.13.2c2.06,3.3,3.94,6.63,6.29,9.68.28.36.56.71.85,1.06l.07.09.25.29c.48.56,1,1.1,1.49,1.63a27.29,27.29,0,0,0,3.92,3.33.24.24,0,0,0,.09.06c.34.24.7.47,1.06.71s.74.46,1.13.68l.13.07c.38.22.79.43,1.21.64l.15.08h0l.07,0,.5.24.59.28c.37.16.74.32,1.13.47l.59.23c.19.08.39.15.6.22.67.23,1.36.46,2.08.66l.14,0h0l.84.24a0,0,0,0,1,0,0,64.56,64.56,0,0,0,16.44,1.82c3.8,0,7.9-.3,12.6-.7,20-1.92,38.56-7.57,56.13-14.93,1.62-.67,3.22-1.36,4.82-2.07l.1,0,1.08-.48c16.56-7.35,32.35-16,47.89-24.3l2.56-1.35.09-.05,1.21-.64c14.34-7.56,28.51-14.62,42.94-19.79,2.13-.77,4.28-1.5,6.43-2.17l.18-.06c.47-.15.94-.3,1.41-.43a131.87,131.87,0,0,1,25.87-5.29c4.4-.4,8.2-.6,11.7-.6,9.6,0,16.11,1.51,20.65,4h0a0,0,0,0,0,0,0c14.35,7.93,8.89,25.78,19.67,37h0a27,27,0,0,0,11,6.68,48.37,48.37,0,0,0,16,3.1,31.13,31.13,0,0,0,8.33-1.13c.52-.14,1-.29,1.54-.45l.15-.05c4-1.25,7.59-3,11.94-4.29A41.56,41.56,0,0,1,2270,90.25c6.2,0,14.1,1.2,24.7,4.6,12.3,4,25.83,9.91,39.05,16.47l3.58,1.79,1.51.77,0,0c4.77,2.43,9.48,4.93,14,7.42h0c22.17,12.09,41,24.08,48.09,28.67"/></g></g><g id="blue"><path class="cls-2" d="M2397.61,150H926a124.58,124.58,0,0,1,32-36.26l0,0,.12-.1,1.3-1a123.13,123.13,0,0,1,18-11.2c.71-.37,1.43-.73,2.16-1.07a.05.05,0,0,1,0,0h0c.66-.33,1.33-.65,2-.95a124.44,124.44,0,0,1,37-10.53,121.65,121.65,0,0,1,30.07-.13c1.22.14,2.42.3,3.61.48a0,0,0,0,1,0,0,161.9,161.9,0,0,1,28,7.12l.31.11c8.66,2.94,17.15,6.31,26,9.49l.13,0a217.5,217.5,0,0,0,33,9.57c1.25.25,2.52.48,3.8.69a158.56,158.56,0,0,0,46.92.82c33.47-4.15,46.32-17.64,57.69-31.46,0,0,0,0,0,0,.22-.27.44-.53.65-.8l1.49-1.81c6.45-7.93,12.82-15.78,22.73-21.86q2.17-1.32,4.59-2.54l.08,0,.82-.4c11.8-5.66,28.18-9,53.34-8.17a220.74,220.74,0,0,1,24.87,2.24c.91.13,1.81.27,2.71.42a.15.15,0,0,1,.09,0,223.19,223.19,0,0,1,39.28,10.12c25.36,8.94,48.05,21.33,73,33.28l4.78,2.28L1478,99h0c8.89,4.17,18.09,8.23,27.83,12l1.13.45h0l.69.27,2.49.94A323.59,323.59,0,0,0,1559.82,127h0q2.75.56,5.55,1.07l.15,0c1.55.29,3.11.57,4.69.83h.06q5.43.93,11.11,1.7l1.17.16q4.74.63,9.1,1.14l.53.06h0c28.68,3.34,45.31,2.77,57.82.35h0l.51-.11c1.54-.31,3-.64,4.44-1a114,114,0,0,0,11.71-3.68h0c2.81-1,5.6-2.1,8.55-3.2l1.38-.52,1.58-.58.66-.23c2.3-.83,4.71-1.66,7.31-2.47h0L1688,120c13.83-4.16,32.89-7.82,66.17-8.63q5.79-.15,12.18-.16H1769q6.49,0,13.64.14c29.88.58,58.08,2.72,85.1,5.65,1.57.16,3.14.33,4.7.51l.4,0,2.19.24q11.87,1.35,23.45,2.87l1.12.14h.09l.51.07.59.08,6.07.81,3.65.49.22,0c81.56,11.13,153.85,25.7,231.81,18.85,25.54-2.24,45.29-7.18,61.21-13.56,1.23-.48,2.44-1,3.63-1.5l.1,0,1-.45c4.52-2,8.71-4.08,12.63-6.26l1.86-1,.13-.08,1.29-.75a154.34,154.34,0,0,0,14.36-9.58c.6-.44,1.18-.89,1.76-1.33l.15-.11c.45-.34.89-.68,1.32-1,5.71-4.46,10.83-9,15.7-13.31l.1-.09,1.76-1.57c1.61-1.44,3.19-2.85,4.76-4.22,14.47-12.7,28.08-22.78,50.79-23.77a71.87,71.87,0,0,1,11.6.37h0l.44,0h0a50,50,0,0,1,7.21,1.43h0c21.19,6,25.75,24.67,30.66,40.9.17.57.35,1.13.52,1.69l.33,1.07s0,0,0,0c2.94,9.32,6.35,17.49,13.63,21.48a18.5,18.5,0,0,0,2.51,1.15c.53.2,1,.37,1.54.52h.05c18.1,5.65,21.39-13.29,28.54-23a18,18,0,0,1,1.32-1.63l.09-.11c.3-.33.61-.64.92-.93a9.66,9.66,0,0,1,5.76-2.72h.08a10.42,10.42,0,0,1,2.7.12,0,0,0,0,0,0,0,11.53,11.53,0,0,1,1.19.25c17.67,4.64,32.35,40.47,34.83,46.83h-56.26"/></g><g id="line_blue" data-name="line blue"><g id="Trazado_28701" data-name="Trazado 28701"><path class="cls-3" d="M2397.61,150H920.54a128.63,128.63,0,0,1,31.73-36.8l.09-.07.12-.09c.41-.33.83-.65,1.26-1a122.3,122.3,0,0,1,17-11h0c.67-.37,1.35-.72,2-1.06h0s0,0,0,0c.65-.34,1.3-.66,2-1a117.79,117.79,0,0,1,15-6.08h0A118.58,118.58,0,0,1,1004,89.23h0q4.23-.84,8.7-1.4a121.46,121.46,0,0,1,39.66,1.4,0,0,0,0,1,0,0c29.75,5.91,53.66,21.1,87.38,26.34a159.39,159.39,0,0,0,44.74.46c33.59-4.16,46.4-17.73,57.8-31.6v0h0l.64-.8h0c.49-.6,1-1.21,1.48-1.81,7-8.62,14-17.14,25.5-23.36,1.53-.83,3.13-1.62,4.83-2.34a.1.1,0,0,1,.08,0l.86-.37c11.53-4.81,27.19-7.56,50.18-6.76a220.11,220.11,0,0,1,33.56,3.71.15.15,0,0,1,.09,0c41.64,7.91,73.19,26.72,110,44.15l4.74,2.22,1.41.65h0c9.11,4.19,18.58,8.26,28.64,12l1.14.42a0,0,0,0,0,0,0c1,.38,2.08.77,3.14,1.14A319.11,319.11,0,0,0,1559.07,127h0q3.11.58,6.29,1.11l.15,0c3.23.54,6.52,1,9.88,1.49q5.37.74,10.26,1.3h0c3.91.46,7.59.85,11.07,1.17h0l.66.06h0c17.06,1.54,29.22,1.45,38.85.35h0l.86-.1h0c2.14-.26,4.16-.58,6.07-.93h0a98.23,98.23,0,0,0,13.19-3.45h0c4.14-1.39,8.1-2.94,12.35-4.54l1.83-.69h0l2.14-.78.17-.06c2.51-.9,5.15-1.81,8-2.69h0l1.72-.53h0c15-4.41,36.09-8.19,74.23-8.51h0q5.49-.06,11.46,0l2.29,0h.19c1.86,0,3.76,0,5.69.08l5.77.13q5.71.15,11.34.37h0c3.28.13,6.55.28,9.79.44,0,0,0,0,0,0,22.7,1.16,44.47,3.12,65.52,5.53h0l4.57.53.39.05h0l2,.24h0q11.34,1.36,22.42,2.85l1.12.15h.08l.48.06,1.26.17h0l6,.82h0l3.58.5.21,0h0c32.9,4.59,64.33,9.62,95.3,13.45l4.69.57,4.69.55c1.48.18,3,.35,4.45.51l4.67.51,3,.31c1.06.12,2.12.22,3.19.33l.76.07c2,.2,3.92.38,5.88.56l4.45.4,1.88.16.53,0c1.5.13,3,.25,4.49.36l3.82.28c2.8.2,5.61.38,8.41.55l2.81.16.33,0h.12l.86,0,1.79.09,2,.09,2.51.12c11.12.47,22.26.63,33.48.4l2.89-.08,2.27-.06c1.23,0,2.46-.08,3.7-.13l.51,0,1.58-.06.69,0,.84,0,.59,0h.09l.54,0c1.24,0,2.49-.12,3.73-.19h.32l1.05-.06,2.23-.14,3.5-.24h.11l1.86-.14.32,0,4.2-.35c27.62-2.43,48.48-8,65-15.14,1.39-.59,2.76-1.2,4.09-1.82l.1,0,1.05-.5q4.44-2.1,8.46-4.36l2.38-1.35.12-.07,1.27-.75a159.85,159.85,0,0,0,15.15-10.27l1.76-1.35.15-.12,1.31-1c2.83-2.25,5.52-4.52,8.11-6.76h0l.19-.17,2.05-1.8h0c2.87-2.53,5.63-5,8.35-7.42,10.19-9.05,19.72-17,32-21.57,0,0,0,0,0,0l.95-.35,1-.34c.65-.22,1.3-.43,2-.63.94-.28,1.89-.55,2.87-.8l1.65-.39c1.1-.25,2.22-.47,3.37-.67h0c1.23-.21,2.48-.39,3.76-.54h0l2-.2,1.17-.1.26,0h.24l.46,0,1.39-.07h.11a62.94,62.94,0,0,1,17.37,1.43h0c23.53,5.64,27.68,26.13,33,43.2.2.65.4,1.3.61,1.94.12.35.23.7.34,1,0,0,0,0,0,0,3.13,9.43,7,17.39,15.47,20.55.67.25,1.32.47,2,.65a3.81,3.81,0,0,0,.45.13l.74.2,1,.22.75.13.39.06.39.06.67.07.56,0c.21,0,.42,0,.63,0h0c13.28.16,16.44-16.2,23-24.62.25-.33.51-.64.77-.93l.08-.1h0q.45-.51.93-1a9.48,9.48,0,0,1,7.87-2.83l.41,0h0a14.28,14.28,0,0,1,1.58.32,16.77,16.77,0,0,1,2,.67h0a30.08,30.08,0,0,1,10.37,7.8c.62.67,1.23,1.36,1.82,2.08.12.13.23.27.34.41h0c5.21,6.35,9.75,14.4,13.23,21.51.05.09.1.19.14.28l.77,1.59c2.79,5.88,4.8,10.92,5.79,13.54h-49.93"/><path id="Trazado_28657" data-name="Trazado 28657" class="cls-4" d="M2205.64,123.16c-1.33.62-2.7,1.23-4.09,1.82-.17-.17-.35-.34-.53-.49-18.26,7.81-39.41,12.65-64.2,14.83-13.4,1.1-26.8,1.7-41,1.7-49.1,0-97-7-147.7-14.5q-16.44-2.44-33.36-4.84l-3.18.5c32.84,4.58,64.24,9.62,95.17,13.47l4.69.57,4.69.55c1.48.18,3,.35,4.45.51l4.67.51,3,.31c1.06.12,2.12.22,3.19.33l.76.07c2,.2,3.92.38,5.88.56l4.45.4,1.88.16.53,0c1.5.13,3,.25,4.49.36l3.82.28c2.8.2,5.61.38,8.41.55l2.81.16.33,0h.12l.86,0,1.79.09,2,.09,2.51.12c7.82.34,15.64.54,23.5.54,3.33,0,6.65,0,10-.14l2.89-.08,2.27-.06c1.23,0,2.46-.08,3.7-.13l.51,0,1.58-.06.69,0,.84,0,.59,0h.09l.54,0c1.24,0,2.49-.12,3.73-.19h.32l1.05-.06,2.23-.14,3.5-.24h.11l1.86-.14.32,0,4.3-.35c27.58-2.42,48.42-8,65-15.11,1.39-.59,2.76-1.2,4.09-1.81C2205.67,123.18,2205.66,123.17,2205.64,123.16Zm241.41,10.6c-.31-.65-.64-1.3-1-1.94-.05-.13-.12-.25-.18-.37h0c-.54-1.05-1.1-2.08-1.66-3.12a94.28,94.28,0,0,0-8.34-13.25q-.19-.27-.42-.54c-.59-.8-1.22-1.6-1.87-2.38-.21-.28-.44-.55-.67-.83a38,38,0,0,0-9.82-8.4,0,0,0,0,1,0,0,19.47,19.47,0,0,0-4.37-1.79,12.81,12.81,0,0,0-3.3-.5,10.82,10.82,0,0,0-8.09,3.84c-.21.21-.41.43-.61.66s-.17.22-.24.33l-.07.09-.62.84a52.94,52.94,0,0,0-4.87,8.24c-2,3.8-4,7.8-6.7,10.7a14.22,14.22,0,0,1-4.4,3.5,12.16,12.16,0,0,1-5.7,1.3,21.56,21.56,0,0,1-4.54-.6,20.61,20.61,0,0,1-2.86-.9c-4.6-1.7-8-5-10.9-10.3a60.43,60.43,0,0,1-3.87-9.52.06.06,0,0,1,0,0c-.12-.35-.23-.7-.34-1.05l-.6-1.88c-.46-1.48-.91-3-1.38-4.51-1.5-4.7-3-9.7-4.91-14.4a48.58,48.58,0,0,0-7.7-13.2,36.42,36.42,0,0,0-5.7-5.4,35,35,0,0,0-6.89-4h0l-.49-.21a42.2,42.2,0,0,0-9.3-2.7,59.9,59.9,0,0,0-11.5-1c-1.2,0-2.4,0-3.7.1a69.92,69.92,0,0,0-17.4,2.9,63.21,63.21,0,0,0-14.4,6.3c-8.2,4.79-15.47,11-23,17.77h0l-1.91,1.72c-2.16,2-4.36,3.94-6.63,5.93l-1.93,1.67L2244,97c-2.33,2-4.74,4-7.27,6l-1.32,1a.79.79,0,0,1-.15.12l-.71.56-1,.79a143.49,143.49,0,0,1-15.31,10.33l-1.28.74-.13.07L2214.3,118c-1,.54-2,1.06-3,1.58q-2.43,1.26-4.93,2.45l-1.06.5-.1.05c-1.39.64-2.79,1.27-4.21,1.87-18.26,7.81-39.41,12.65-64.2,14.83-13.4,1.1-26.8,1.7-41,1.7-49.1,0-97-7-147.7-14.5q-16.44-2.44-33.36-4.84l-.24,0-3.53-.49c-2-.29-4-.56-6.09-.83l-3.84-.52-.35,0h-.09l-1.1-.15q-9.86-1.3-19.91-2.54l-2-.24-.36,0-4.48-.53-6.26-.72c-32-3.6-61.2-5.6-89.4-6.1l-4.31-.07h-.18l-2.26,0h-6.95c-1.46,0-2.9,0-4.32,0-24.28.15-43.82,1.66-59.78,4.68a182.08,182.08,0,0,0-17.73,4.39l-1.72.52h0q-4,1.26-8,2.71l-.31.11-2.1.78h0c-.63.23-1.26.48-1.89.72l-1.13.45c-4.13,1.57-8.09,3.07-12.33,4.37h0a93.36,93.36,0,0,1-15.86,3.43c-3.54.46-7.43.77-11.8.91l-2.23.05h-.45c-.81,0-1.66,0-2.51,0-1.72,0-3.5,0-5.34-.08h-.26l-2.31-.08c-5.18-.2-10.8-.58-16.93-1.16s-13-1.38-20.26-2.38q-5-.69-10-1.53h0q-14.1-2.39-27.94-6-14.14-3.7-27.91-8.67c-.85-.29-1.7-.6-2.54-.92l-.7-.26h0c-.39-.13-.78-.28-1.17-.43l-.57-.21c-9.76-3.65-19-7.59-27.82-11.65h0l-1.4-.64-4.8-2.25c-7.6-3.59-15-7.25-22.26-10.85-16.89-8.31-32.81-16.22-50.07-22.65q-3.07-1.17-6.23-2.25a218.94,218.94,0,0,0-66.2-12.5c-2.6-.1-5.2-.1-7.7-.1-5.8,0-11.2.2-16.2.7a128.36,128.36,0,0,0-13.5,2.1,71.29,71.29,0,0,0-14,4.38l-.85.37-.08,0q-2.45,1.1-4.8,2.37l-.62.34a63.64,63.64,0,0,0-14,10.7,155.74,155.74,0,0,0-10.8,12.3l-.32.39c-.48.6-1,1.21-1.47,1.81-.21.27-.43.53-.66.8,0,0,0,0,0,0-5.17,6.29-10.77,12.52-18.44,17.78a67.19,67.19,0,0,1-15.9,8,105.1,105.1,0,0,1-22.5,5.1,190.74,190.74,0,0,1-21.1,1.3c-22.32,0-40.17-4.7-56.69-10.43l-.13,0c-5.12-1.78-10.12-3.65-15.08-5.52-3.68-1.35-7.28-2.69-10.87-4l-.31-.11c-6.14-2.19-12.24-4.23-18.62-5.92a122.92,122.92,0,0,0-15.9-3.3,126.07,126.07,0,0,0-33.2-.2c-1.22.15-2.44.32-3.65.51h0a121.11,121.11,0,0,0-25.15,6.65,118.09,118.09,0,0,0-11,4.85c-.65.32-1.3.65-1.95,1,0,0,0,0,0,0-.37.18-.74.37-1.1.57l-.9.49a124.63,124.63,0,0,0-16.54,10.9c-.42.32-.83.64-1.24,1h0L951,113l-.1.08a126.91,126.91,0,0,0-10.29,9.25,132.4,132.4,0,0,0-16.7,20.2c-2.16,3.34-3.64,5.95-4.47,7.48h1.19a128.47,128.47,0,0,1,31.82-36.78l.09-.07.12-.09c.42-.33.84-.66,1.27-1a119.6,119.6,0,0,1,17.08-11c.68-.38,1.37-.73,2.06-1.07a.05.05,0,0,1,0,0h0c.65-.35,1.31-.67,2-1a117.76,117.76,0,0,1,16.41-6.46h.08c3.37-1,6.86-2,10.5-2.72h.11q5.09-1.1,10.51-1.78a126.48,126.48,0,0,1,15.8-1,120.09,120.09,0,0,1,20.25,1.72c32.64,5.51,57.68,22.7,94.81,27.51a152.1,152.1,0,0,0,19.74,1.27,176.74,176.74,0,0,0,21.2-1.4c33.7-4.16,46.49-17.78,57.92-31.68v0c.22-.27.44-.53.65-.8l1.49-1.81c7-8.61,14-17.09,25.49-23.29,1.53-.82,3.13-1.6,4.83-2.33l.09,0c.28-.13.57-.25.86-.36,10.2-4.24,23.62-6.87,42.46-6.87,2.5,0,5,0,7.7.1a220.57,220.57,0,0,1,30.75,3.19c43,7.57,75.15,26.8,112.77,44.61l4.74,2.22,1.41.66h0c9.11,4.2,18.58,8.27,28.64,12l1.14.43h0c1,.39,2.07.77,3.12,1.15h0a320.65,320.65,0,0,0,49.9,13.65q5.71,1.08,11.7,2h.06c1.73.26,3.47.51,5.23.75,3.22.43,6.3.82,9.26,1.17q5.81.69,11,1.18l.68.06h.18c9.41.88,17.32,1.28,24.21,1.28a135,135,0,0,0,16.55-.92l.84-.11c2.06-.26,4-.58,5.84-.94a96.43,96.43,0,0,0,13-3.45h0c4.07-1.37,8-2.9,12.17-4.48l1.81-.68h0l2.14-.78.13,0c2.51-.9,5.17-1.81,8-2.69h0l1.74-.52c14.94-4.4,36-8.18,73.88-8.54q3,0,6,0h8c1.86,0,3.76,0,5.69.08l5.77.13q5.71.15,11.34.37h0c3.28.13,6.54.27,9.79.44,0,0,0,0,0,0,22.76,1.13,44.59,3.1,65.69,5.51l4.57.52.4,0,2.08.25q11.28,1.35,22.3,2.83l1.12.15h.08l.47.06,1.38.19,6,.82,3.58.5.21,0c32.84,4.58,64.24,9.62,95.17,13.47l4.69.57,4.69.55c1.48.18,3,.35,4.45.51l4.67.51,3,.31c1.06.12,2.12.22,3.19.33l.76.07c2,.2,3.92.38,5.88.56l4.45.4,1.88.16.53,0c1.5.13,3,.25,4.49.36l3.82.28c2.8.2,5.61.38,8.41.55l2.81.16.33,0h.12l.86,0,1.79.09,2,.09,2.51.12c7.82.34,15.64.54,23.5.54,3.33,0,6.65,0,10-.14l2.89-.08,2.27-.06c1.23,0,2.46-.08,3.7-.13l.51,0,1.58-.06.69,0,.84,0,.59,0h.09l.54,0c1.24,0,2.49-.12,3.73-.19h.32l1.05-.06,2.23-.14,3.5-.24h.11l1.86-.14.32,0,4.3-.35c27.58-2.42,48.42-8,65-15.11,1.39-.59,2.76-1.2,4.09-1.81a.24.24,0,0,1,.1,0l1.05-.5q4.47-2.13,8.51-4.39c.8-.44,1.59-.89,2.37-1.34l.12-.07,1.27-.75a157.79,157.79,0,0,0,15.14-10.27c.6-.44,1.18-.9,1.76-1.34l.15-.12,1.32-1c2.86-2.28,5.58-4.57,8.2-6.84l.19-.17c.7-.6,1.39-1.21,2.08-1.82,2.86-2.51,5.6-5,8.31-7.38,10.15-9,19.65-16.91,31.84-21.54,0,0,0,0,0,0l.95-.35,1-.34c.65-.22,1.3-.43,2-.63.94-.28,1.89-.55,2.87-.8l1.65-.39c1.1-.25,2.22-.47,3.37-.67h0c1.23-.21,2.48-.39,3.76-.54h0l2-.2,1.17-.1.26,0h.24l.46,0,1.39-.07h.11c1.26-.09,2.42-.09,3.59-.09a59.52,59.52,0,0,1,14.23,1.57h0c23.21,5.76,27.34,26.14,32.6,43.12.2.65.4,1.29.61,1.93.11.35.23.7.35,1a.08.08,0,0,0,0,0c3.12,9.44,7,17.42,15.45,20.58a17.65,17.65,0,0,0,1.85.65,3.81,3.81,0,0,0,.45.13l.74.2,1,.22.75.13.39.06.39.06.67.07.56,0c.23,0,.45,0,.68,0h.23c13.13,0,16.3-16.24,22.82-24.62.25-.33.51-.64.78-.94l.08-.09c.3-.34.62-.67.94-1a9.57,9.57,0,0,1,6.78-2.88l.51,0c.16,0,.32,0,.49,0l.41,0h0a11,11,0,0,1,1.68.32,17.1,17.1,0,0,1,2,.67,30.1,30.1,0,0,1,10.41,7.85c.62.67,1.22,1.37,1.82,2.09l.34.41c5.15,6.3,9.66,14.25,13.13,21.3h0l.14.27.78,1.61c2.83,5.93,4.87,11,5.88,13.67h1.2A164.51,164.51,0,0,0,2447.05,133.76Zm-241.41-10.6c-1.33.62-2.7,1.23-4.09,1.82-.17-.17-.35-.34-.53-.49-18.26,7.81-39.41,12.65-64.2,14.83-13.4,1.1-26.8,1.7-41,1.7-49.1,0-97-7-147.7-14.5q-16.44-2.44-33.36-4.84l-3.18.5c32.84,4.58,64.24,9.62,95.17,13.47l4.69.57,4.69.55c1.48.18,3,.35,4.45.51l4.67.51,3,.31c1.06.12,2.12.22,3.19.33l.76.07c2,.2,3.92.38,5.88.56l4.45.4,1.88.16.53,0c1.5.13,3,.25,4.49.36l3.82.28c2.8.2,5.61.38,8.41.55l2.81.16.33,0h.12l.86,0,1.79.09,2,.09,2.51.12c7.82.34,15.64.54,23.5.54,3.33,0,6.65,0,10-.14l2.89-.08,2.27-.06c1.23,0,2.46-.08,3.7-.13l.51,0,1.58-.06.69,0,.84,0,.59,0h.09l.54,0c1.24,0,2.49-.12,3.73-.19h.32l1.05-.06,2.23-.14,3.5-.24h.11l1.86-.14.32,0,4.3-.35c27.58-2.42,48.42-8,65-15.11,1.39-.59,2.76-1.2,4.09-1.81C2205.67,123.18,2205.66,123.17,2205.64,123.16Z"/></g></g><g id="drop1"><g id="Grupo_21655" data-name="Grupo 21655"><g id="Grupo_21654" data-name="Grupo 21654"><path id="Trazado_28694-2" data-name="Trazado 28694-2" class="cls-2" d="M2244.2,39.4A12.18,12.18,0,0,1,2232,27.23v0A12.13,12.13,0,0,1,2244,15h.16c6.7,0,8.9,5.4,8.9,12.2S2250.9,39.4,2244.2,39.4Z"/></g></g></g><g id="line_drop1" data-name="line drop1"><path id="Trazado_28707" data-name="Trazado 28707" class="cls-5" d="M2248.2,39.4a12.2,12.2,0,1,1,0-24.4c6.7,0,8.9,5.4,8.9,12.2S2254.9,39.4,2248.2,39.4Z"/></g><g id="drop2"><g id="Grupo_21657" data-name="Grupo 21657"><g id="Grupo_21656" data-name="Grupo 21656"><path id="Trazado_28692-2" data-name="Trazado 28692-2" class="cls-2" d="M2053.42,15.27a23.45,23.45,0,0,1,.5,46.9h-.4c-12.9,0-17.2-10.5-17.2-23.4S2040.42,15.27,2053.42,15.27Z"/></g></g></g><g id="line_drop2" data-name="line drop2"><path id="Trazado_28706" data-name="Trazado 28706" class="cls-5" d="M2053.38,9.19a23.45,23.45,0,0,1,.5,46.9h-.4c-12.9,0-17.2-10.5-17.2-23.4S2040.38,9.19,2053.38,9.19Z"/></g><g id="drop4"><g id="Grupo_21661" data-name="Grupo 21661"><g id="Grupo_21660" data-name="Grupo 21660"><path id="Trazado_28690-2" data-name="Trazado 28690-2" class="cls-2" d="M1913.41,13.47a35.17,35.17,0,0,1,35.2,35.17v0h0c0,19.4-9.3,25.1-28.7,25.1s-31.4-10.5-31.4-30S1894,13.47,1913.41,13.47Z"/></g></g></g><g id="line_drop4" data-name="line drop4"><path id="Trazado_28702" data-name="Trazado 28702" class="cls-5" d="M1918.47,15.49a35.17,35.17,0,0,1,35.2,35.17v0h0c0,19.4-9.3,25.1-28.7,25.1s-31.4-10.5-31.4-30S1899,15.49,1918.47,15.49Z"/></g><g id="drop5"><g id="Grupo_21663" data-name="Grupo 21663"><g id="Grupo_21662" data-name="Grupo 21662"><path id="Trazado_28691-2" data-name="Trazado 28691-2" class="cls-2" d="M1194.67,6A27.9,27.9,0,0,1,1214,40.37l0,.1v.1c-4.3,14.9-12.7,17.1-27.6,12.9s-21.8-14.9-17.5-29.8S1179.77,1.77,1194.67,6Z"/></g></g></g><g id="line_drop5" data-name="line drop5"><path id="Trazado_28709" data-name="Trazado 28709" class="cls-5" d="M1193.63,4A27.9,27.9,0,0,1,1213,38.39l0,.1v.1c-4.3,14.8-12.7,17.1-27.6,12.9s-21.8-15-17.5-29.8S1178.73-.31,1193.63,4Z"/></g><g id="drop7"><g id="Grupo_21667" data-name="Grupo 21667"><g id="Grupo_21666" data-name="Grupo 21666"><path id="Trazado_28693-2" data-name="Trazado 28693-2" class="cls-2" d="M974.56,12.57c13.4,0,24.2,7.5,24.2,16.6s-10.9,16.6-24.2,16.6-17.8-7.5-17.8-16.6S961.16,12.57,974.56,12.57Z"/></g></g></g><g id="line_drop7" data-name="line drop7"><path id="Trazado_28708" data-name="Trazado 28708" class="cls-5" d="M970.62,15.49c13.4,0,24.2,7.5,24.2,16.6s-10.9,16.6-24.2,16.6-17.8-7.5-17.8-16.6S957.22,15.49,970.62,15.49Z"/></g><g id="drop8"><g id="Grupo_21669" data-name="Grupo 21669"><g id="Grupo_21668" data-name="Grupo 21668"><path id="Trazado_28689-2" data-name="Trazado 28689-2" class="cls-2" d="M830.54,25.87a11.4,11.4,0,1,1,0,22.8c-6.3,0-8.3-5.1-8.3-11.4S824.34,25.87,830.54,25.87Z"/></g></g></g><g id="line_drop8" data-name="line drop8"><path id="Trazado_28703" data-name="Trazado 28703" class="cls-5" d="M834.6,23.89a11.4,11.4,0,0,1,0,22.8c-6.3,0-8.3-5.1-8.3-11.4S828.3,23.89,834.6,23.89Z"/></g></g></svg>